<?xml version="1.0" encoding="utf-8"?>
<!-- Generator: Adobe Illustrator 14.0.0, SVG Export Plug-In . SVG Version: 6.00 Build 43363)  -->
<!DOCTYPE svg PUBLIC "-//W3C//DTD SVG 1.1//EN" "http://www.w3.org/Graphics/SVG/1.1/DTD/svg11.dtd">
<svg version="1.1" id="Livello_1" xmlns="http://www.w3.org/2000/svg" xmlns:xlink="http://www.w3.org/1999/xlink" x="0px" y="0px"
	 width="800px" height="600px" viewBox="0 0 800 600" enable-background="new 0 0 800 600" xml:space="preserve">
<path fill="none" stroke="#000000" stroke-width="2" d="M251.828,154.934"/>
<path fill="none" stroke="#000000" d="M400.481,510.695"/>
<path fill="none" stroke="#000000" stroke-width="2" d="M400.182,512.973"/>
<g>
	<circle fill="#FFFFFF" stroke="#000000" stroke-width="2" cx="399.8" cy="299.803" r="209.5"/>
	<line fill="none" stroke="#000000" stroke-width="2" x1="399.8" y1="90.303" x2="399.8" y2="509.303"/>
	<line fill="none" stroke="#000000" stroke-width="2" x1="547.933" y1="151.659" x2="251.628" y2="447.908"/>
	<line fill="none" stroke="#000000" stroke-width="2" x1="251.628" y1="151.659" x2="547.933" y2="447.947"/>
	<line fill="none" stroke="#000000" stroke-width="2" x1="190.3" y1="299.803" x2="609.3" y2="299.803"/>
	<path fill="none" stroke="#000000" stroke-width="2" d="M547.933,151.659c-8.866,56.566,23.582,120.032,61.367,148.144"/>
	<path fill="none" stroke="#000000" stroke-width="2" d="M547.254,446.607"/>
	<path fill="none" stroke="#000000" stroke-width="2" d="M609.7,298.883"/>
	<path fill="none" stroke="#000000" stroke-width="2" d="M399.8,90.303c-32.903,46.858-101.463,67.371-148.172,61.356"/>
	<path fill="none" stroke="#000000" stroke-width="2" d="M190.3,299.803c46.404,33.54,67.974,101.479,61.328,148.104"/>
	<path fill="none" stroke="#000000" stroke-width="2" d="M190.3,299.803"/>
	<path fill="none" stroke="#000000" d="M252.131,448.906"/>
	<path fill="none" stroke="#000000" stroke-width="2" d="M547.933,447.947c-56.64-8.369-120.169,23.72-147.951,61.75"/>
	<path fill="none" stroke="#000000" stroke-width="2" d="M251.628,447.908"/>
</g>
<path fill="none" stroke="#000000" stroke-width="2" d="M399.599,93.113"/>
<path fill="none" stroke="#000000" stroke-width="2" d="M548.133,154.934"/>
</svg>
