<?xml version="1.0" encoding="utf-8"?>
<!-- Generator: Adobe Illustrator 14.0.0, SVG Export Plug-In . SVG Version: 6.00 Build 43363)  -->
<!DOCTYPE svg PUBLIC "-//W3C//DTD SVG 1.1//EN" "http://www.w3.org/Graphics/SVG/1.1/DTD/svg11.dtd">
<svg version="1.1" id="Livello_1" xmlns="http://www.w3.org/2000/svg" xmlns:xlink="http://www.w3.org/1999/xlink" x="0px" y="0px"
	 width="800px" height="600px" viewBox="0 0 800 600" enable-background="new 0 0 800 600" xml:space="preserve">
<g>
	<circle fill="#FFFFFF" stroke="#000000" stroke-width="2" cx="400" cy="300" r="209.5"/>
	<line fill="none" stroke="#000000" stroke-width="2" x1="400" y1="368.021" x2="400" y2="509.5"/>
	<line fill="none" stroke="#000000" stroke-width="2" x1="400" y1="90.5" x2="400" y2="233.022"/>
	<line fill="none" stroke="#000000" stroke-width="2" x1="351.978" y1="347.976" x2="251.828" y2="448.105"/>
	<path fill="none" stroke="#000000" stroke-width="2" d="M548.133,151.856c0,0-50.789,50.78-100.68,100.662"/>
	<line fill="none" stroke="#000000" stroke-width="2" x1="447.983" y1="347.999" x2="548.133" y2="448.145"/>
	<line fill="none" stroke="#000000" stroke-width="2" x1="251.828" y1="151.856" x2="352.525" y2="252.547"/>
	<path fill="none" stroke="#000000" stroke-width="2" d="M352.271,348.252c-12.215-12.216-19.771-29.091-19.771-47.73
		c0-37.279,30.222-67.5,67.5-67.5c18.499,0,35.259,7.441,47.451,19.494c12.379,12.236,20.049,29.225,20.049,48.006
		c0,37.279-30.22,67.5-67.5,67.5C381.361,368.021,364.486,360.467,352.271,348.252z"/>
</g>
<path fill="none" stroke="#000000" stroke-width="2" d="M734.5,230.5"/>
</svg>
