<?xml version="1.0" encoding="utf-8"?>
<!-- Generator: Adobe Illustrator 14.0.0, SVG Export Plug-In . SVG Version: 6.00 Build 43363)  -->
<!DOCTYPE svg PUBLIC "-//W3C//DTD SVG 1.1//EN" "http://www.w3.org/Graphics/SVG/1.1/DTD/svg11.dtd">
<svg version="1.1" id="Livello_1" xmlns="http://www.w3.org/2000/svg" xmlns:xlink="http://www.w3.org/1999/xlink" x="0px" y="0px"
	 width="800px" height="600px" viewBox="0 0 800 600" enable-background="new 0 0 800 600" xml:space="preserve">
<path fill="none" stroke="#000000" stroke-width="2" d="M400,512.578"/>
<path fill="none" stroke="#000000" stroke-width="2" d="M750.5,275.5"/>
<path fill="none" stroke="#000000" stroke-width="2" d="M400,551.5"/>
<path fill="none" stroke="#000000" stroke-width="2" d="M399.828,52.5"/>
<g>
	<circle fill="#FFFFFF" stroke="#000000" stroke-width="2" cx="400" cy="300" r="209.5"/>
	<path fill="none" stroke="#000000" stroke-width="2" d="M400,365.5"/>
	<path fill="none" stroke="#000000" stroke-width="2" d="M400,230.5"/>
	<path fill="none" stroke="#000000" stroke-width="2" d="M400,91.578"/>
	<path fill="none" stroke="#000000" stroke-width="2" d="M251.828,449.184"/>
	<path fill="none" stroke="#000000" stroke-width="2" d="M353.812,347.219"/>
	<path fill="none" stroke="#000000" stroke-width="2" d="M449.228,251.821"/>
	<path fill="none" stroke="#000000" stroke-width="2" d="M548.133,152.934"/>
	<path fill="none" stroke="#000000" stroke-width="2" d="M548.133,449.223"/>
	<path fill="none" stroke="#000000" stroke-width="2" d="M446.152,347.247"/>
	<path fill="none" stroke="#000000" stroke-width="2" d="M350.751,251.852"/>
	<path fill="none" stroke="#000000" stroke-width="2" d="M251.828,152.934"/>
	<path fill="none" stroke="#000000" stroke-width="2" d="M609.5,301.078"/>
	<path fill="none" stroke="#000000" stroke-width="2" d="M467.5,301.078"/>
	<path fill="none" stroke="#000000" stroke-width="2" d="M332.5,301.078"/>
	<path fill="none" stroke="#000000" stroke-width="2" d="M190.5,301.078"/>
	<circle fill="none" stroke="#000000" stroke-width="2" cx="400" cy="298" r="67.5"/>
	<path fill="none" stroke="#000000" d="M593.133,152.934"/>
	<path fill="none" stroke="#000000" d="M548.133,107.934"/>
	<path fill="none" stroke="#000000" stroke-width="2" d="M548.133,489.184"/>
	<path fill="none" stroke="#000000" stroke-width="2" d="M588.133,449.184"/>
	<path fill="none" stroke="#000000" stroke-width="2" d="M605.471,341.078c-22.092,0-35.971-17.909-35.971-40
		c0-22.091,14.327-39.832,36.419-39.832"/>
	<path fill="none" stroke="#000000" stroke-width="2" d="M649.5,301.078"/>
	<path fill="none" stroke="#000000" stroke-width="2" d="M360.176,505.72c1.905-20.316,19.007-36.22,39.824-36.22
		c20.816,0,37.92,15.901,39.824,36.221"/>
	<path fill="none" stroke="#000000" stroke-width="2" d="M251.828,112.934"/>
	<path fill="none" stroke="#000000" stroke-width="2" d="M211.828,152.934"/>
	<path fill="none" stroke="#000000" stroke-width="2" d="M251.828,489.184"/>
	<path fill="none" stroke="#000000" stroke-width="2" d="M211.828,449.184"/>
	<path fill="none" stroke="#000000" stroke-width="2" d="M194.081,261.237c20.414,1.811,36.419,18.957,36.419,39.841
		c0,20.744-15.792,37.801-36.01,39.804"/>
	<path fill="none" stroke="#000000" stroke-width="2" d="M150.5,301.078"/>
	<path fill="none" stroke="#000000" stroke-width="2" d="M439.655,94.247c-1.892,20.334-18.999,36.253-39.827,36.253
		c-20.805,0-37.9-15.883-39.821-36.186"/>
</g>
</svg>
