<?xml version="1.0" encoding="utf-8"?>
<!-- Generator: Adobe Illustrator 14.0.0, SVG Export Plug-In . SVG Version: 6.00 Build 43363)  -->
<!DOCTYPE svg PUBLIC "-//W3C//DTD SVG 1.1//EN" "http://www.w3.org/Graphics/SVG/1.1/DTD/svg11.dtd">
<svg version="1.1" id="Livello_1" xmlns="http://www.w3.org/2000/svg" xmlns:xlink="http://www.w3.org/1999/xlink" x="0px" y="0px"
	 width="800px" height="600px" viewBox="0 0 800 600" enable-background="new 0 0 800 600" xml:space="preserve">
<path fill="none" stroke="#000000" stroke-width="2" d="M400,512.578"/>
<path fill="none" stroke="#000000" stroke-width="2" d="M750.5,275.5"/>
<path fill="none" stroke="#000000" stroke-width="2" d="M400,551.5"/>
<path fill="none" stroke="#000000" stroke-width="2" d="M150.5,303.078"/>
<path fill="none" stroke="#000000" stroke-width="2" d="M399.828,52.5"/>
<g>
	<circle fill="#FFFFFF" stroke="#000000" stroke-width="2" cx="380" cy="300" r="209.5"/>
	<path fill="none" stroke="#000000" stroke-width="2" d="M380,365.5"/>
	<path fill="none" stroke="#000000" stroke-width="2" d="M380,230.5"/>
	<path fill="none" stroke="#000000" stroke-width="2" d="M380,91.578"/>
	<path fill="none" stroke="#000000" stroke-width="2" d="M231.828,449.184"/>
	<path fill="none" stroke="#000000" stroke-width="2" d="M333.812,347.219"/>
	<path fill="none" stroke="#000000" stroke-width="2" d="M429.228,251.821"/>
	<path fill="none" stroke="#000000" stroke-width="2" d="M528.133,152.934"/>
	<path fill="none" stroke="#000000" stroke-width="2" d="M528.133,449.223"/>
	<path fill="none" stroke="#000000" stroke-width="2" d="M426.152,347.247"/>
	<path fill="none" stroke="#000000" stroke-width="2" d="M330.751,251.852"/>
	<path fill="none" stroke="#000000" stroke-width="2" d="M231.828,152.934"/>
	<path fill="none" stroke="#000000" stroke-width="2" d="M589.5,301.078"/>
	<path fill="none" stroke="#000000" stroke-width="2" d="M447.5,301.078"/>
	<path fill="none" stroke="#000000" stroke-width="2" d="M312.5,301.078"/>
	<path fill="none" stroke="#000000" stroke-width="2" d="M170.5,301.078"/>
	<circle fill="none" stroke="#000000" stroke-width="2" cx="380" cy="298" r="67.5"/>
	<path fill="none" stroke="#000000" stroke-width="2" d="M556.824,187.602c-7.788,6.454-17.787,10.333-28.691,10.333
		c-24.853,0-45-20.147-45-45c0-11.021,3.962-21.118,10.54-28.942"/>
	<path fill="none" stroke="#000000" d="M573.133,152.934"/>
	<path fill="none" stroke="#000000" d="M528.133,107.934"/>
	<path fill="none" stroke="#000000" stroke-width="2" d="M528.133,489.184"/>
	<path fill="none" stroke="#000000" stroke-width="2" d="M568.133,449.184"/>
	<path fill="none" stroke="#000000" stroke-width="2" d="M496.744,473.982c-5.395-6.816-8.611-15.434-8.611-24.801
		c0-22.091,17.908-40,40-40c9.466,0,18.164,3.288,25.016,8.784"/>
	<path fill="none" stroke="#000000" stroke-width="2" d="M585.471,341.078c-22.092,0-35.971-17.909-35.971-40
		c0-22.091,14.327-39.832,36.419-39.832"/>
	<path fill="none" stroke="#000000" stroke-width="2" d="M629.5,301.078"/>
	<path fill="none" stroke="#000000" stroke-width="2" d="M340.176,505.72c1.905-20.316,19.007-36.22,39.824-36.22
		c20.816,0,37.92,15.901,39.824,36.221"/>
	<path fill="none" stroke="#000000" stroke-width="2" d="M231.828,112.934"/>
	<path fill="none" stroke="#000000" stroke-width="2" d="M191.828,152.934"/>
	<path fill="none" stroke="#000000" stroke-width="2" d="M262.108,126.797c6.057,7.01,9.72,16.146,9.72,26.137
		c0,22.091-17.908,40-40,40c-9.883,0-18.93-3.584-25.91-9.525"/>
	<path fill="none" stroke="#000000" stroke-width="2" d="M231.828,489.184"/>
	<path fill="none" stroke="#000000" stroke-width="2" d="M206.838,417.949c6.846-5.485,15.535-8.768,24.99-8.768
		c22.092,0,40,17.909,40,40c0,9.358-3.214,17.969-8.599,24.78"/>
	<path fill="none" stroke="#000000" stroke-width="2" d="M191.828,449.184"/>
	<path fill="none" stroke="#000000" stroke-width="2" d="M174.081,261.237c20.414,1.811,36.419,18.957,36.419,39.841
		c0,20.744-15.792,37.801-36.01,39.804"/>
	<path fill="none" stroke="#000000" stroke-width="2" d="M419.655,94.247c-1.892,20.334-18.999,36.253-39.827,36.253
		c-20.805,0-37.9-15.883-39.821-36.186"/>
</g>
</svg>
