<?xml version="1.0" encoding="utf-8"?>
<!-- Generator: Adobe Illustrator 14.0.0, SVG Export Plug-In . SVG Version: 6.00 Build 43363)  -->
<!DOCTYPE svg PUBLIC "-//W3C//DTD SVG 1.1//EN" "http://www.w3.org/Graphics/SVG/1.1/DTD/svg11.dtd">
<svg version="1.1" id="Livello_1" xmlns="http://www.w3.org/2000/svg" xmlns:xlink="http://www.w3.org/1999/xlink" x="0px" y="0px"
	 width="800px" height="600px" viewBox="0 0 800 600" enable-background="new 0 0 800 600" xml:space="preserve">
<path fill="none" stroke="#000000" stroke-width="2" d="M750.5,275.5"/>
<path fill="none" stroke="#000000" stroke-width="2" d="M400,551.5"/>
<path fill="none" stroke="#000000" stroke-width="2" d="M399.828,52.5"/>
<g>
	<circle fill="#FFFFFF" stroke="#000000" stroke-width="2" cx="400" cy="302" r="209.5"/>
	<path fill="none" stroke="#000000" stroke-width="2" d="M400,512.578"/>
	<line fill="none" stroke="#000000" stroke-width="2" x1="400" y1="367.5" x2="400" y2="471.5"/>
	<line fill="none" stroke="#000000" stroke-width="2" x1="400" y1="132.5" x2="400" y2="232.5"/>
	<path fill="none" stroke="#000000" stroke-width="2" d="M400,93.578"/>
	<path fill="none" stroke="#000000" stroke-width="2" d="M251.828,451.184"/>
	<path fill="none" stroke="#000000" stroke-width="2" d="M353.812,349.219"/>
	<path fill="none" stroke="#000000" stroke-width="2" d="M449.228,253.821"/>
	<path fill="none" stroke="#000000" stroke-width="2" d="M548.133,154.934"/>
	<path fill="none" stroke="#000000" stroke-width="2" d="M548.133,451.223"/>
	<path fill="none" stroke="#000000" stroke-width="2" d="M446.152,349.247"/>
	<path fill="none" stroke="#000000" stroke-width="2" d="M350.751,253.852"/>
	<path fill="none" stroke="#000000" stroke-width="2" d="M251.828,154.934"/>
	<path fill="none" stroke="#000000" stroke-width="2" d="M609.5,303.078"/>
	<line fill="none" stroke="#000000" stroke-width="2" x1="467.5" y1="303.078" x2="569.5" y2="303.078"/>
	<line fill="none" stroke="#000000" stroke-width="2" x1="230.5" y1="303.078" x2="332.5" y2="303.078"/>
	<path fill="none" stroke="#000000" stroke-width="2" d="M190.5,303.078"/>
	<circle fill="none" stroke="#000000" stroke-width="2" cx="400" cy="300" r="67.5"/>
	<path fill="none" stroke="#000000" stroke-width="2" d="M576.824,189.602c-7.788,6.454-17.787,10.333-28.691,10.333
		c-24.853,0-45-20.147-45-45c0-11.021,3.962-21.118,10.54-28.942"/>
	<path fill="none" stroke="#000000" d="M593.133,154.934"/>
	<path fill="none" stroke="#000000" d="M548.133,109.934"/>
	<path fill="none" stroke="#000000" stroke-width="2" d="M548.133,491.184"/>
	<path fill="none" stroke="#000000" stroke-width="2" d="M588.133,451.184"/>
	<path fill="none" stroke="#000000" stroke-width="2" d="M516.744,475.982c-5.395-6.816-8.611-15.434-8.611-24.801
		c0-22.091,17.908-40,40-40c9.466,0,18.164,3.288,25.016,8.784"/>
	<path fill="none" stroke="#000000" stroke-width="2" d="M605.471,343.078c-22.092,0-35.971-17.909-35.971-40
		c0-22.091,14.327-39.832,36.419-39.832"/>
	<path fill="none" stroke="#000000" stroke-width="2" d="M649.5,303.078"/>
	<path fill="none" stroke="#000000" stroke-width="2" d="M360.176,507.72c1.905-20.316,19.007-36.22,39.824-36.22
		c20.816,0,37.92,15.901,39.824,36.221"/>
	<path fill="none" stroke="#000000" stroke-width="2" d="M251.828,114.934"/>
	<path fill="none" stroke="#000000" stroke-width="2" d="M211.828,154.934"/>
	<path fill="none" stroke="#000000" stroke-width="2" d="M282.108,128.797c6.057,7.01,9.72,16.146,9.72,26.137
		c0,22.091-17.908,40-40,40c-9.883,0-18.93-3.584-25.91-9.525"/>
	<path fill="none" stroke="#000000" stroke-width="2" d="M251.828,491.184"/>
	<path fill="none" stroke="#000000" stroke-width="2" d="M226.838,419.949c6.846-5.485,15.535-8.768,24.99-8.768
		c22.092,0,40,17.909,40,40c0,9.358-3.214,17.969-8.599,24.78"/>
	<path fill="none" stroke="#000000" stroke-width="2" d="M211.828,451.184"/>
	<path fill="none" stroke="#000000" stroke-width="2" d="M194.081,263.237c20.414,1.811,36.419,18.957,36.419,39.841
		c0,20.744-15.792,37.801-36.01,39.804"/>
	<path fill="none" stroke="#000000" stroke-width="2" d="M150.5,303.078"/>
	<path fill="none" stroke="#000000" stroke-width="2" d="M439.655,96.247c-1.892,20.334-18.999,36.253-39.827,36.253
		c-20.805,0-37.9-15.883-39.821-36.186"/>
</g>
</svg>
