<?xml version="1.0" encoding="utf-8"?>
<!-- Generator: Adobe Illustrator 14.0.0, SVG Export Plug-In . SVG Version: 6.00 Build 43363)  -->
<!DOCTYPE svg PUBLIC "-//W3C//DTD SVG 1.1//EN" "http://www.w3.org/Graphics/SVG/1.1/DTD/svg11.dtd">
<svg version="1.1" id="Livello_1" xmlns="http://www.w3.org/2000/svg" xmlns:xlink="http://www.w3.org/1999/xlink" x="0px" y="0px"
	 width="800px" height="600px" viewBox="0 0 800 600" enable-background="new 0 0 800 600" xml:space="preserve">
<path fill="none" stroke="#000000" d="M340.164,88.404"/>
<g>
	<circle fill="none" stroke="#000000" stroke-width="2" cx="399.8" cy="300.035" r="209.5"/>
	<line fill="none" stroke="#000000" stroke-width="2" x1="399.8" y1="90.535" x2="399.8" y2="509.535"/>
	<line fill="none" stroke="#000000" stroke-width="2" x1="547.933" y1="151.892" x2="251.628" y2="448.141"/>
	<line fill="none" stroke="#000000" stroke-width="2" x1="251.628" y1="151.892" x2="547.933" y2="448.18"/>
	<line fill="none" stroke="#000000" stroke-width="2" x1="190.3" y1="300.035" x2="609.3" y2="300.035"/>
	<path fill="none" stroke="#000000" stroke-width="2" d="M547.933,151.892c-8.866,56.565,23.582,120.031,61.367,148.144"/>
	<path fill="none" stroke="#000000" stroke-width="2" d="M609.7,299.115c-46.645,33.205-68.759,101.051-62.446,147.725"/>
	<path fill="none" stroke="#000000" stroke-width="2" d="M399.8,90.535c-32.903,46.858-101.463,67.371-148.172,61.356"/>
	<path fill="none" stroke="#000000" stroke-width="2" d="M190.3,300.035c46.404,33.54,67.974,101.479,61.328,148.104"/>
	<path fill="none" stroke="#000000" stroke-width="2" d="M251.628,151.892c8.883,56.563-23.55,120.021-61.328,148.144"/>
	<path fill="none" stroke="#000000" d="M400.281,507.652"/>
	<path fill="none" stroke="#000000" d="M252.131,449.139"/>
	<path fill="none" stroke="#000000" stroke-width="2" d="M547.933,448.18c-56.64-8.369-120.169,23.721-147.951,61.75"/>
	<path fill="none" stroke="#000000" stroke-width="2" d="M251.628,448.141c51.842-7.451,120.216,22.953,148.354,61.789"/>
	<path fill="none" stroke="#000000" stroke-width="2" d="M547.933,151.892c-56.677,8.116-120.922-23.667-148.534-61.821"/>
	<circle fill="none" stroke="#000000" stroke-width="2" cx="399.8" cy="296.957" r="62.5"/>
	<line fill="none" x1="480.761" y1="106.755" x2="399.8" y2="296.957"/>
	<line fill="none" stroke="#000000" stroke-width="2" x1="318.838" y1="106.755" x2="480.761" y2="493.315"/>
	<line fill="none" stroke="#000000" stroke-width="2" x1="318.84" y1="493.315" x2="480.761" y2="106.755"/>
	<line fill="none" stroke="#000000" stroke-width="2" x1="206.499" y1="219.124" x2="593.243" y2="380.604"/>
	<line fill="none" stroke="#000000" stroke-width="2" x1="206.499" y1="380.604" x2="593.243" y2="219.467"/>
	<polyline fill="none" stroke="#000000" stroke-width="2" points="293.41,119.536 297.856,129.864 349.543,107.612 345.278,97.707 	
		"/>
	<path fill="none" stroke="#000000" d="M288.277,107.612"/>
	<polyline fill="none" stroke="#000000" stroke-width="2" points="505.378,479.986 500.931,469.658 449.243,491.91 453.509,501.814 
			"/>
	<polyline fill="none" stroke="#000000" stroke-width="2" points="345.861,501.477 350.067,491.049 297.882,469.991 293.848,479.99 
			"/>
	<polyline fill="none" stroke="#000000" stroke-width="2" points="453.055,98.043 448.848,108.471 501.033,129.528 505.066,119.529 
			"/>
	<polyline fill="none" stroke="#000000" stroke-width="2" points="197.616,246.479 208.013,250.758 229.434,198.72 219.46,194.614 	
		"/>
	<polyline fill="none" stroke="#000000" stroke-width="2" points="601.677,353.966 591.28,349.687 569.858,401.726 579.833,405.83 	
		"/>
	<polyline fill="none" stroke="#000000" stroke-width="2" points="219.58,405.099 229.865,400.558 207.138,349.075 197.271,353.433 
			"/>
	<polyline fill="none" stroke="#000000" stroke-width="2" points="579.867,194.951 569.582,199.492 592.31,250.975 602.176,246.617 
			"/>
</g>
</svg>
