<?xml version="1.0" encoding="utf-8"?>
<!-- Generator: Adobe Illustrator 14.0.0, SVG Export Plug-In . SVG Version: 6.00 Build 43363)  -->
<!DOCTYPE svg PUBLIC "-//W3C//DTD SVG 1.1//EN" "http://www.w3.org/Graphics/SVG/1.1/DTD/svg11.dtd">
<svg version="1.1" id="Livello_1" xmlns="http://www.w3.org/2000/svg" xmlns:xlink="http://www.w3.org/1999/xlink" x="0px" y="0px"
	 width="800px" height="600px" viewBox="0 0 800 600" enable-background="new 0 0 800 600" xml:space="preserve">
<g>
	<circle fill="none" stroke="#000000" stroke-width="2" cx="400" cy="299.961" r="209.5"/>
	<line fill="none" stroke="#000000" stroke-width="2" x1="400" y1="359.461" x2="400" y2="509.539"/>
	<line fill="none" stroke="#000000" stroke-width="2" x1="400" y1="90.539" x2="400" y2="234.461"/>
	<line fill="none" stroke="#000000" stroke-width="2" x1="357.351" y1="342.643" x2="251.828" y2="448.145"/>
	<line fill="none" stroke="#000000" stroke-width="2" x1="548.133" y1="151.895" x2="445.689" y2="254.32"/>
	<line fill="none" stroke="#000000" stroke-width="2" x1="442.616" y1="342.674" x2="548.133" y2="448.184"/>
	<line fill="none" stroke="#000000" stroke-width="2" x1="251.828" y1="151.895" x2="354.285" y2="254.347"/>
	<polyline fill="none" stroke="#000000" stroke-width="2" points="462.424,300.039 499.947,300.039 609.5,300.039 	"/>
	<polyline fill="none" stroke="#000000" stroke-width="2" points="190.5,300.039 300.052,300.039 337.576,300.039 	"/>
	<circle fill="none" stroke="#000000" stroke-width="2" cx="400" cy="296.961" r="62.5"/>
	<circle fill="none" stroke="#000000" stroke-width="2" cx="400" cy="296.961" r="100"/>
	<path fill="none" stroke="#000000" d="M463.095,276.4"/>
	<path fill="none" stroke="#000000" d="M355.11,321.341"/>
	<line fill="none" x1="206.5" y1="379.461" x2="593.833" y2="220.128"/>
	<line fill="none" x1="206.5" y1="220.128" x2="593.833" y2="378.592"/>
	<line fill="none" x1="206.5" y1="379.461" x2="593.833" y2="220.128"/>
	<line fill="none" x1="317.833" y1="490.795" x2="479.167" y2="104.794"/>
	<line fill="none" x1="206.5" y1="379.461" x2="593.833" y2="220.128"/>
	<line fill="none" x1="317.833" y1="490.795" x2="477.348" y2="109.149"/>
	<line fill="none" x1="479.167" y1="492.986" x2="317.833" y2="106.191"/>
	<line fill="none" stroke="#000000" stroke-width="2" x1="343.264" y1="323.202" x2="459.167" y2="275.959"/>
	<line fill="none" stroke="#000000" stroke-width="2" x1="373.743" y1="240.232" x2="421.836" y2="355.536"/>
</g>
</svg>
