<?xml version="1.0" encoding="utf-8"?>
<!-- Generator: Adobe Illustrator 14.0.0, SVG Export Plug-In . SVG Version: 6.00 Build 43363)  -->
<!DOCTYPE svg PUBLIC "-//W3C//DTD SVG 1.1//EN" "http://www.w3.org/Graphics/SVG/1.1/DTD/svg11.dtd">
<svg version="1.1" id="Livello_1" xmlns="http://www.w3.org/2000/svg" xmlns:xlink="http://www.w3.org/1999/xlink" x="0px" y="0px"
	 width="800px" height="600px" viewBox="0 0 800 600" enable-background="new 0 0 800 600" xml:space="preserve">
<path fill="none" stroke="#000000" stroke-width="2" d="M750.5,275.5"/>
<path fill="none" stroke="#000000" stroke-width="2" d="M400,551.5"/>
<path fill="none" stroke="#000000" stroke-width="2" d="M399.828,52.5"/>
<g>
	<circle fill="none" stroke="#000000" stroke-width="2" cx="400" cy="299.461" r="209.5"/>
	<line fill="none" stroke="#000000" stroke-width="2" x1="400" y1="364.961" x2="400" y2="510.039"/>
	<line fill="none" stroke="#000000" stroke-width="2" x1="400" y1="91.039" x2="400" y2="229.961"/>
	<line fill="none" stroke="#000000" stroke-width="2" x1="353.812" y1="346.68" x2="251.828" y2="448.645"/>
	<line fill="none" stroke="#000000" stroke-width="2" x1="548.133" y1="152.395" x2="449.228" y2="251.282"/>
	<line fill="none" stroke="#000000" stroke-width="2" x1="446.152" y1="346.708" x2="548.133" y2="448.684"/>
	<line fill="none" stroke="#000000" stroke-width="2" x1="251.828" y1="152.395" x2="350.751" y2="251.313"/>
	<line fill="none" stroke="#000000" stroke-width="2" x1="467.5" y1="300.539" x2="609.5" y2="300.539"/>
	<line fill="none" stroke="#000000" stroke-width="2" x1="190.5" y1="300.539" x2="332.5" y2="300.539"/>
	<circle fill="none" stroke="#000000" stroke-width="2" cx="400" cy="297.461" r="67.5"/>
	<path fill="none" stroke="#000000" stroke-width="2" d="M576.824,187.063c-7.788,6.454-17.787,10.333-28.691,10.333
		c-24.853,0-45-20.147-45-45c0-11.021,3.962-21.118,10.54-28.942"/>
	<path fill="none" stroke="#000000" d="M593.133,152.395"/>
	<path fill="none" stroke="#000000" d="M548.133,107.395"/>
	<path fill="none" stroke="#000000" stroke-width="2" d="M548.133,488.645"/>
	<path fill="none" stroke="#000000" stroke-width="2" d="M588.133,448.645"/>
	<path fill="none" stroke="#000000" stroke-width="2" d="M516.744,473.443c-5.395-6.816-8.611-15.434-8.611-24.801
		c0-22.091,17.908-40,40-40c9.466,0,18.164,3.288,25.016,8.784"/>
	<path fill="none" stroke="#000000" stroke-width="2" d="M605.471,340.539c-22.092,0-35.971-17.909-35.971-40
		c0-22.091,14.327-39.832,36.419-39.832"/>
	<path fill="none" stroke="#000000" stroke-width="2" d="M649.5,300.539"/>
	<path fill="none" stroke="#000000" stroke-width="2" d="M360.176,505.181c1.905-20.316,19.007-36.22,39.824-36.22
		c20.816,0,37.92,15.901,39.824,36.221"/>
	<path fill="none" stroke="#000000" stroke-width="2" d="M251.828,112.395"/>
	<path fill="none" stroke="#000000" stroke-width="2" d="M211.828,152.395"/>
	<path fill="none" stroke="#000000" stroke-width="2" d="M282.108,126.258c6.057,7.01,9.72,16.146,9.72,26.137
		c0,22.091-17.908,40-40,40c-9.883,0-18.93-3.584-25.91-9.525"/>
	<path fill="none" stroke="#000000" stroke-width="2" d="M251.828,488.645"/>
	<path fill="none" stroke="#000000" stroke-width="2" d="M226.838,417.41c6.846-5.485,15.535-8.768,24.99-8.768
		c22.092,0,40,17.909,40,40c0,9.358-3.214,17.969-8.599,24.78"/>
	<path fill="none" stroke="#000000" stroke-width="2" d="M211.828,448.645"/>
	<path fill="none" stroke="#000000" stroke-width="2" d="M194.081,260.698c20.414,1.811,36.419,18.957,36.419,39.841
		c0,20.744-15.792,37.801-36.01,39.804"/>
	<path fill="none" stroke="#000000" stroke-width="2" d="M150.5,300.539"/>
	<path fill="none" stroke="#000000" stroke-width="2" d="M439.655,93.708c-1.892,20.334-18.999,36.253-39.827,36.253
		c-20.805,0-37.9-15.883-39.821-36.186"/>
	<circle fill="none" stroke="#000000" stroke-width="2" cx="400" cy="297.461" r="125"/>
	<line fill="none" stroke="#000000" stroke-width="2" x1="221.904" y1="226.074" x2="258.948" y2="241.166"/>
	<line fill="none" stroke="#000000" stroke-width="2" x1="232.88" y1="252.142" x2="247.972" y2="215.098"/>
	<line fill="none" stroke="#000000" stroke-width="2" x1="324.94" y1="122.568" x2="342.059" y2="158.721"/>
	<line fill="none" stroke="#000000" stroke-width="2" x1="315.424" y1="149.204" x2="351.577" y2="132.086"/>
	<line fill="none" stroke="#000000" stroke-width="2" x1="448.979" y1="133.099" x2="486.022" y2="148.19"/>
	<line fill="none" stroke="#000000" stroke-width="2" x1="459.955" y1="159.167" x2="475.047" y2="122.123"/>
	<line fill="none" stroke="#000000" stroke-width="2" x1="551.523" y1="214.754" x2="564.802" y2="252.486"/>
	<line fill="none" stroke="#000000" stroke-width="2" x1="539.295" y1="240.259" x2="577.029" y2="226.982"/>
	<line fill="none" stroke="#000000" stroke-width="2" x1="540.64" y1="359.415" x2="577.684" y2="374.507"/>
	<line fill="none" stroke="#000000" stroke-width="2" x1="551.615" y1="385.483" x2="566.708" y2="348.439"/>
	<line fill="none" stroke="#000000" stroke-width="2" x1="313.978" y1="454.02" x2="351.022" y2="469.111"/>
	<line fill="none" stroke="#000000" stroke-width="2" x1="324.954" y1="480.088" x2="340.046" y2="443.043"/>
	<line fill="none" stroke="#000000" stroke-width="2" x1="458.641" y1="442.635" x2="476.361" y2="478.496"/>
	<line fill="none" stroke="#000000" stroke-width="2" x1="449.57" y1="469.428" x2="485.432" y2="451.705"/>
	<line fill="none" stroke="#000000" stroke-width="2" x1="232.681" y1="348.521" x2="248.172" y2="385.4"/>
	<line fill="none" stroke="#000000" stroke-width="2" x1="221.987" y1="374.707" x2="258.866" y2="359.216"/>
	<line fill="none" stroke="#000000" stroke-width="2" x1="400" y1="229.961" x2="400" y2="364.961"/>
	<line fill="none" stroke="#000000" stroke-width="2" x1="332.5" y1="300.539" x2="467.5" y2="300.539"/>
	<line fill="none" stroke="#000000" stroke-width="2" x1="353.812" y1="346.68" x2="449.228" y2="251.282"/>
	<line fill="none" stroke="#000000" stroke-width="2" x1="350.751" y1="251.313" x2="446.152" y2="346.708"/>
</g>
</svg>
