<?xml version="1.0" encoding="utf-8"?>
<!-- Generator: Adobe Illustrator 14.0.0, SVG Export Plug-In . SVG Version: 6.00 Build 43363)  -->
<!DOCTYPE svg PUBLIC "-//W3C//DTD SVG 1.1//EN" "http://www.w3.org/Graphics/SVG/1.1/DTD/svg11.dtd">
<svg version="1.1" id="Livello_1" xmlns="http://www.w3.org/2000/svg" xmlns:xlink="http://www.w3.org/1999/xlink" x="0px" y="0px"
	 width="800px" height="600px" viewBox="0 0 800 600" enable-background="new 0 0 800 600" xml:space="preserve">
<g>
	<circle fill="#FFFFFF" stroke="#000000" stroke-width="2" cx="400" cy="303.5" r="209.5"/>
	<path fill="none" stroke="#000000" stroke-width="2" d="M399,512.078"/>
	<line fill="none" stroke="#000000" stroke-width="2" x1="399" y1="311.5" x2="399" y2="362"/>
	<line fill="none" stroke="#000000" stroke-width="2" x1="399" y1="237" x2="399" y2="291.5"/>
	<path fill="none" stroke="#000000" stroke-width="2" d="M399,93.078"/>
	<path fill="none" stroke="#000000" stroke-width="2" d="M250.828,450.684"/>
	<path fill="none" stroke="#000000" stroke-width="2" d="M392.806,309.341c-19.411,19.406-36.455,35.839-36.455,35.839"/>
	<path fill="none" stroke="#000000" stroke-width="2" d="M444.689,256.859c-11.926,11.92-27.179,27.312-38.057,38.187"/>
	<path fill="none" stroke="#000000" stroke-width="2" d="M478.291,223.263"/>
	<path fill="none" stroke="#000000" stroke-width="2" d="M547.133,154.434"/>
	<path fill="none" stroke="#000000" stroke-width="2" d="M547.133,450.723"/>
	<line fill="none" stroke="#000000" stroke-width="2" x1="405.193" y1="309.341" x2="441.617" y2="345.215"/>
	<line fill="none" stroke="#000000" stroke-width="2" x1="353.285" y1="256.886" x2="391.369" y2="295.045"/>
	<path fill="none" stroke="#000000" stroke-width="2" d="M250.828,154.434"/>
	<path fill="none" stroke="#000000" stroke-width="2" d="M608.5,302.578"/>
	<path fill="none" stroke="#000000" stroke-width="2" d="M189.5,302.578"/>
	<circle fill="none" stroke="#000000" stroke-width="2" cx="399" cy="299.5" r="62.5"/>
	<circle fill="none" stroke="#000000" stroke-width="2" cx="399" cy="299.5" r="110"/>
	<circle fill="none" stroke="#000000" stroke-width="2" cx="399" cy="301.5" r="10"/>
	<line fill="none" stroke="#000000" stroke-width="2" x1="190.5" y1="24.5" x2="189.5" y2="574"/>
	<line fill="none" stroke="#000000" stroke-width="2" x1="609.5" y1="24.5" x2="609" y2="576.5"/>
	<circle fill="none" stroke="#000000" stroke-width="2" cx="609.5" cy="14.5" r="10"/>
	<circle fill="none" stroke="#000000" stroke-width="2" cx="609" cy="585.5" r="10"/>
	<circle fill="none" stroke="#000000" stroke-width="2" cx="190.5" cy="584.751" r="10"/>
	<circle fill="none" stroke="#000000" stroke-width="2" cx="190.5" cy="14.5" r="10"/>
</g>
</svg>
