<?xml version="1.0" encoding="utf-8"?>
<!-- Generator: Adobe Illustrator 14.0.0, SVG Export Plug-In . SVG Version: 6.00 Build 43363)  -->
<!DOCTYPE svg PUBLIC "-//W3C//DTD SVG 1.1//EN" "http://www.w3.org/Graphics/SVG/1.1/DTD/svg11.dtd">
<svg version="1.1" id="Livello_1" xmlns="http://www.w3.org/2000/svg" xmlns:xlink="http://www.w3.org/1999/xlink" x="0px" y="0px"
	 width="800px" height="600px" viewBox="0 0 800 600" enable-background="new 0 0 800 600" xml:space="preserve">
<rect x="175" y="75" fill="#FFFFFF" stroke="#000000" stroke-width="2" width="450" height="450"/>
<line fill="none" stroke="#000000" stroke-width="2" x1="400" y1="75" x2="400" y2="525"/>
<line fill="none" stroke="#000000" stroke-width="2" x1="175" y1="300" x2="625" y2="300"/>
<line fill="none" stroke="#000000" stroke-width="2" x1="231.61" y1="75" x2="231.61" y2="525"/>
<line fill="none" stroke="#000000" stroke-width="2" x1="288.139" y1="75" x2="288.139" y2="525"/>
<line fill="none" stroke="#000000" stroke-width="2" x1="344.75" y1="75" x2="344.75" y2="525"/>
<line fill="none" stroke="#000000" stroke-width="2" x1="457.972" y1="75" x2="457.972" y2="525"/>
<line fill="none" stroke="#000000" stroke-width="2" x1="514.5" y1="75" x2="514.5" y2="525"/>
<line fill="none" stroke="#000000" stroke-width="2" x1="571.111" y1="75" x2="571.111" y2="525"/>
<line fill="none" stroke="#000000" stroke-width="2" x1="175" y1="131.528" x2="625" y2="131.528"/>
<line fill="none" stroke="#000000" stroke-width="2" x1="175" y1="188.222" x2="625" y2="188.222"/>
<line fill="none" stroke="#000000" stroke-width="2" x1="175" y1="244.75" x2="625" y2="244.75"/>
<line fill="none" stroke="#000000" stroke-width="2" x1="174" y1="356.528" x2="625" y2="356.528"/>
<line fill="none" stroke="#000000" stroke-width="2" x1="174" y1="413.222" x2="625" y2="413.222"/>
<line fill="none" stroke="#000000" stroke-width="2" x1="174" y1="469.75" x2="625" y2="469.75"/>
</svg>
