<?xml version="1.0" encoding="utf-8"?>
<!-- Generator: Adobe Illustrator 14.0.0, SVG Export Plug-In . SVG Version: 6.00 Build 43363)  -->
<!DOCTYPE svg PUBLIC "-//W3C//DTD SVG 1.1//EN" "http://www.w3.org/Graphics/SVG/1.1/DTD/svg11.dtd">
<svg version="1.1" id="Livello_1" xmlns="http://www.w3.org/2000/svg" xmlns:xlink="http://www.w3.org/1999/xlink" x="0px" y="0px"
	 width="800px" height="600px" viewBox="0 0 800 600" enable-background="new 0 0 800 600" xml:space="preserve">
<rect x="175" y="75" fill="#FFFFFF" stroke="#000000" stroke-width="2" width="450" height="450"/>
<line fill="none" stroke="#000000" stroke-width="2" x1="400" y1="75" x2="400" y2="525"/>
<line fill="none" stroke="#000000" stroke-width="2" x1="175" y1="300" x2="625" y2="300"/>
<line fill="none" stroke="#000000" stroke-width="2" x1="220.439" y1="75" x2="220.439" y2="525"/>
<line fill="none" stroke="#000000" stroke-width="2" x1="265.811" y1="75" x2="265.811" y2="525"/>
<line fill="none" stroke="#000000" stroke-width="2" x1="311.25" y1="75" x2="311.25" y2="525"/>
<line fill="none" stroke="#000000" stroke-width="2" x1="356.689" y1="75" x2="356.689" y2="525"/>
<line fill="none" stroke="#000000" stroke-width="2" x1="175" y1="120.039" x2="625" y2="120.039"/>
<line fill="none" stroke="#000000" stroke-width="2" x1="175" y1="165.211" x2="625" y2="165.211"/>
<line fill="none" stroke="#000000" stroke-width="2" x1="175" y1="210.25" x2="625" y2="210.25"/>
<line fill="none" stroke="#000000" stroke-width="2" x1="175" y1="255.289" x2="625" y2="255.289"/>
<line fill="none" stroke="#000000" stroke-width="2" x1="445.5" y1="75" x2="445.5" y2="525"/>
<line fill="none" stroke="#000000" stroke-width="2" x1="490.873" y1="75" x2="490.873" y2="525"/>
<line fill="none" stroke="#000000" stroke-width="2" x1="536.312" y1="75" x2="536.312" y2="525"/>
<line fill="none" stroke="#000000" stroke-width="2" x1="581.75" y1="75" x2="581.75" y2="525"/>
<line fill="none" stroke="#000000" stroke-width="2" x1="175" y1="345.5" x2="625" y2="345.5"/>
<line fill="none" stroke="#000000" stroke-width="2" x1="175" y1="390.672" x2="625" y2="390.672"/>
<line fill="none" stroke="#000000" stroke-width="2" x1="175" y1="435.711" x2="625" y2="435.711"/>
<line fill="none" stroke="#000000" stroke-width="2" x1="175" y1="480.75" x2="625" y2="480.75"/>
</svg>
