<?xml version="1.0" encoding="utf-8"?>
<!-- Generator: Adobe Illustrator 14.0.0, SVG Export Plug-In . SVG Version: 6.00 Build 43363)  -->
<!DOCTYPE svg PUBLIC "-//W3C//DTD SVG 1.1//EN" "http://www.w3.org/Graphics/SVG/1.1/DTD/svg11.dtd">
<svg version="1.1" id="Livello_1" xmlns="http://www.w3.org/2000/svg" xmlns:xlink="http://www.w3.org/1999/xlink" x="0px" y="0px"
	 width="800px" height="600px" viewBox="0 0 800 600" enable-background="new 0 0 800 600" xml:space="preserve">
<path fill="#FFFFFF" stroke="#000000" stroke-width="2" d="M625,44"/>
<polyline fill="#FFFFFF" stroke="#000000" stroke-width="2" points="149.75,217.877 149.75,47.622 310.891,47.622 "/>
<path fill="#FFFFFF" stroke="#000000" stroke-width="2" d="M175,546"/>
<path fill="#FFFFFF" stroke="#000000" stroke-width="2" d="M625,546"/>
<path fill="none" stroke="#000000" stroke-width="2" d="M400,546"/>
<line fill="none" stroke="#000000" stroke-width="2" x1="311.25" y1="47.622" x2="311.25" y2="217.122"/>
<path fill="none" stroke="#000000" stroke-width="2" d="M625,321"/>
<polyline fill="none" stroke="#000000" stroke-width="2" points="149.75,217.5 182.365,217.5 214.933,217.5 247.547,217.5 
	280.163,217.5 311.25,217.5 "/>
<path fill="none" stroke="#000000" stroke-width="2" d="M220.439,546"/>
<line fill="none" stroke="#000000" stroke-width="2" x1="182.365" y1="47.622" x2="182.365" y2="217.5"/>
<path fill="none" stroke="#000000" stroke-width="2" d="M265.811,546"/>
<line fill="none" stroke="#000000" stroke-width="2" x1="214.933" y1="47.622" x2="214.933" y2="217.5"/>
<path fill="none" stroke="#000000" stroke-width="2" d="M311.25,546"/>
<line fill="none" stroke="#000000" stroke-width="2" x1="247.547" y1="47.622" x2="247.547" y2="217.5"/>
<path fill="none" stroke="#000000" stroke-width="2" d="M356.689,546"/>
<line fill="none" stroke="#000000" stroke-width="2" x1="280.163" y1="47.622" x2="280.163" y2="217.5"/>
<path fill="none" stroke="#000000" stroke-width="2" d="M625,89.039"/>
<line fill="none" stroke="#000000" stroke-width="2" x1="149.75" y1="81.627" x2="311.25" y2="81.627"/>
<path fill="none" stroke="#000000" stroke-width="2" d="M625,134.211"/>
<line fill="none" stroke="#000000" stroke-width="2" x1="149.75" y1="115.732" x2="311.25" y2="115.732"/>
<path fill="none" stroke="#000000" stroke-width="2" d="M625,179.25"/>
<line fill="none" stroke="#000000" stroke-width="2" x1="149.75" y1="149.737" x2="311.25" y2="149.737"/>
<path fill="none" stroke="#000000" stroke-width="2" d="M625,223.289"/>
<line fill="none" stroke="#000000" stroke-width="2" x1="149.75" y1="183.743" x2="311.25" y2="183.743"/>
<polyline fill="#FFFFFF" stroke="#000000" stroke-width="2" points="311.75,217.877 311.75,47.622 472.891,47.622 "/>
<line fill="none" stroke="#000000" stroke-width="2" x1="473.25" y1="47.622" x2="473.25" y2="217.122"/>
<polyline fill="none" stroke="#000000" stroke-width="2" points="311.75,217.5 344.365,217.5 376.933,217.5 409.547,217.5 
	442.162,217.5 473.25,217.5 "/>
<line fill="none" stroke="#000000" stroke-width="2" x1="344.365" y1="47.622" x2="344.365" y2="217.5"/>
<line fill="none" stroke="#000000" stroke-width="2" x1="376.933" y1="47.622" x2="376.933" y2="217.5"/>
<line fill="none" stroke="#000000" stroke-width="2" x1="409.547" y1="47.622" x2="409.547" y2="217.5"/>
<line fill="none" stroke="#000000" stroke-width="2" x1="442.162" y1="47.622" x2="442.162" y2="217.5"/>
<line fill="none" stroke="#000000" stroke-width="2" x1="311.75" y1="81.627" x2="473.25" y2="81.627"/>
<line fill="none" stroke="#000000" stroke-width="2" x1="311.75" y1="115.732" x2="473.25" y2="115.732"/>
<line fill="none" stroke="#000000" stroke-width="2" x1="311.75" y1="149.737" x2="473.25" y2="149.737"/>
<line fill="none" stroke="#000000" stroke-width="2" x1="311.75" y1="183.742" x2="473.25" y2="183.742"/>
<polyline fill="#FFFFFF" stroke="#000000" stroke-width="2" points="473.75,217.877 473.75,47.622 634.891,47.622 "/>
<line fill="none" stroke="#000000" stroke-width="2" x1="635.25" y1="47.622" x2="635.25" y2="217.122"/>
<polyline fill="none" stroke="#000000" stroke-width="2" points="473.75,217.5 506.365,217.5 538.933,217.5 571.547,217.5 
	604.162,217.5 635.25,217.5 "/>
<line fill="none" stroke="#000000" stroke-width="2" x1="506.365" y1="47.622" x2="506.365" y2="217.5"/>
<line fill="none" stroke="#000000" stroke-width="2" x1="538.933" y1="47.622" x2="538.933" y2="217.5"/>
<line fill="none" stroke="#000000" stroke-width="2" x1="571.547" y1="47.622" x2="571.547" y2="217.5"/>
<line fill="none" stroke="#000000" stroke-width="2" x1="604.162" y1="47.622" x2="604.162" y2="217.5"/>
<line fill="none" stroke="#000000" stroke-width="2" x1="473.75" y1="81.627" x2="635.25" y2="81.627"/>
<line fill="none" stroke="#000000" stroke-width="2" x1="473.75" y1="115.732" x2="635.25" y2="115.732"/>
<line fill="none" stroke="#000000" stroke-width="2" x1="473.75" y1="149.737" x2="635.25" y2="149.737"/>
<line fill="none" stroke="#000000" stroke-width="2" x1="473.75" y1="183.742" x2="635.25" y2="183.742"/>
<path fill="#FFFFFF" stroke="#000000" stroke-width="2" d="M625,215"/>
<polyline fill="#FFFFFF" stroke="#000000" stroke-width="2" points="149.75,387.877 149.75,217.622 310.891,217.622 "/>
<line fill="none" stroke="#000000" stroke-width="2" x1="311.25" y1="217.622" x2="311.25" y2="387.122"/>
<polyline fill="none" stroke="#000000" stroke-width="2" points="149.75,387.5 182.365,387.5 214.933,387.5 247.547,387.5 
	280.163,387.5 311.25,387.5 "/>
<line fill="none" stroke="#000000" stroke-width="2" x1="182.365" y1="217.622" x2="182.365" y2="387.5"/>
<line fill="none" stroke="#000000" stroke-width="2" x1="214.933" y1="217.622" x2="214.933" y2="387.5"/>
<line fill="none" stroke="#000000" stroke-width="2" x1="247.547" y1="217.622" x2="247.547" y2="387.5"/>
<line fill="none" stroke="#000000" stroke-width="2" x1="280.163" y1="217.622" x2="280.163" y2="387.5"/>
<path fill="none" stroke="#000000" stroke-width="2" d="M625,259.039"/>
<line fill="none" stroke="#000000" stroke-width="2" x1="149.75" y1="251.627" x2="311.25" y2="251.627"/>
<path fill="none" stroke="#000000" stroke-width="2" d="M625,304.211"/>
<line fill="none" stroke="#000000" stroke-width="2" x1="149.75" y1="285.732" x2="311.25" y2="285.732"/>
<path fill="none" stroke="#000000" stroke-width="2" d="M625,349.25"/>
<line fill="none" stroke="#000000" stroke-width="2" x1="149.75" y1="319.737" x2="311.25" y2="319.737"/>
<path fill="none" stroke="#000000" stroke-width="2" d="M625,394.289"/>
<line fill="none" stroke="#000000" stroke-width="2" x1="149.75" y1="353.742" x2="311.25" y2="353.742"/>
<polyline fill="#FFFFFF" stroke="#000000" stroke-width="2" points="311.75,387.877 311.75,217.622 472.891,217.622 "/>
<line fill="none" stroke="#000000" stroke-width="2" x1="473.25" y1="217.622" x2="473.25" y2="387.122"/>
<polyline fill="none" stroke="#000000" stroke-width="2" points="311.75,387.5 344.365,387.5 376.933,387.5 409.547,387.5 
	442.162,387.5 473.25,387.5 "/>
<line fill="none" stroke="#000000" stroke-width="2" x1="344.365" y1="217.622" x2="344.365" y2="387.5"/>
<line fill="none" stroke="#000000" stroke-width="2" x1="376.933" y1="217.622" x2="376.933" y2="387.5"/>
<line fill="none" stroke="#000000" stroke-width="2" x1="409.547" y1="217.622" x2="409.547" y2="387.5"/>
<line fill="none" stroke="#000000" stroke-width="2" x1="442.162" y1="217.622" x2="442.162" y2="387.5"/>
<line fill="none" stroke="#000000" stroke-width="2" x1="311.75" y1="251.627" x2="473.25" y2="251.627"/>
<line fill="none" stroke="#000000" stroke-width="2" x1="311.75" y1="285.732" x2="473.25" y2="285.732"/>
<line fill="none" stroke="#000000" stroke-width="2" x1="311.75" y1="319.737" x2="473.25" y2="319.737"/>
<line fill="none" stroke="#000000" stroke-width="2" x1="311.75" y1="353.742" x2="473.25" y2="353.742"/>
<polyline fill="#FFFFFF" stroke="#000000" stroke-width="2" points="473.75,387.877 473.75,217.622 634.891,217.622 "/>
<line fill="none" stroke="#000000" stroke-width="2" x1="635.25" y1="217.622" x2="635.25" y2="387.122"/>
<polyline fill="none" stroke="#000000" stroke-width="2" points="473.75,387.5 506.365,387.5 538.933,387.5 571.547,387.5 
	604.162,387.5 635.25,387.5 "/>
<line fill="none" stroke="#000000" stroke-width="2" x1="506.365" y1="217.622" x2="506.365" y2="387.5"/>
<line fill="none" stroke="#000000" stroke-width="2" x1="538.933" y1="217.622" x2="538.933" y2="387.5"/>
<line fill="none" stroke="#000000" stroke-width="2" x1="571.547" y1="217.622" x2="571.547" y2="387.5"/>
<line fill="none" stroke="#000000" stroke-width="2" x1="604.162" y1="217.622" x2="604.162" y2="387.5"/>
<line fill="none" stroke="#000000" stroke-width="2" x1="473.75" y1="251.627" x2="635.25" y2="251.627"/>
<line fill="none" stroke="#000000" stroke-width="2" x1="473.75" y1="285.732" x2="635.25" y2="285.732"/>
<line fill="none" stroke="#000000" stroke-width="2" x1="473.75" y1="319.737" x2="635.25" y2="319.737"/>
<line fill="none" stroke="#000000" stroke-width="2" x1="473.75" y1="353.742" x2="635.25" y2="353.742"/>
<path fill="#FFFFFF" stroke="#000000" stroke-width="2" d="M625,384"/>
<polyline fill="#FFFFFF" stroke="#000000" stroke-width="2" points="149.75,557.877 149.75,387.622 310.891,387.622 "/>
<line fill="none" stroke="#000000" stroke-width="2" x1="311.25" y1="387.622" x2="311.25" y2="557.122"/>
<polyline fill="none" stroke="#000000" stroke-width="2" points="149.75,557.5 182.365,557.5 214.933,557.5 247.547,557.5 
	280.163,557.5 311.25,557.5 "/>
<line fill="none" stroke="#000000" stroke-width="2" x1="182.365" y1="387.622" x2="182.365" y2="557.5"/>
<line fill="none" stroke="#000000" stroke-width="2" x1="214.933" y1="387.622" x2="214.933" y2="557.5"/>
<line fill="none" stroke="#000000" stroke-width="2" x1="247.547" y1="387.622" x2="247.547" y2="557.5"/>
<line fill="none" stroke="#000000" stroke-width="2" x1="280.163" y1="387.622" x2="280.163" y2="557.5"/>
<path fill="none" stroke="#000000" stroke-width="2" d="M625,429.039"/>
<line fill="none" stroke="#000000" stroke-width="2" x1="149.75" y1="421.627" x2="311.25" y2="421.627"/>
<path fill="none" stroke="#000000" stroke-width="2" d="M625,474.211"/>
<line fill="none" stroke="#000000" stroke-width="2" x1="149.75" y1="455.732" x2="311.25" y2="455.732"/>
<path fill="none" stroke="#000000" stroke-width="2" d="M625,519.25"/>
<line fill="none" stroke="#000000" stroke-width="2" x1="149.75" y1="489.737" x2="311.25" y2="489.737"/>
<path fill="none" stroke="#000000" stroke-width="2" d="M625,564.289"/>
<line fill="none" stroke="#000000" stroke-width="2" x1="149.75" y1="523.742" x2="311.25" y2="523.742"/>
<polyline fill="#FFFFFF" stroke="#000000" stroke-width="2" points="311.75,557.877 311.75,387.622 472.891,387.622 "/>
<line fill="none" stroke="#000000" stroke-width="2" x1="473.25" y1="387.622" x2="473.25" y2="557.122"/>
<polyline fill="none" stroke="#000000" stroke-width="2" points="311.75,557.5 344.365,557.5 376.933,557.5 409.547,557.5 
	442.162,557.5 473.25,557.5 "/>
<line fill="none" stroke="#000000" stroke-width="2" x1="344.365" y1="387.622" x2="344.365" y2="557.5"/>
<line fill="none" stroke="#000000" stroke-width="2" x1="376.933" y1="387.622" x2="376.933" y2="557.5"/>
<line fill="none" stroke="#000000" stroke-width="2" x1="409.547" y1="387.622" x2="409.547" y2="557.5"/>
<line fill="none" stroke="#000000" stroke-width="2" x1="442.162" y1="387.622" x2="442.162" y2="557.5"/>
<line fill="none" stroke="#000000" stroke-width="2" x1="311.75" y1="421.627" x2="473.25" y2="421.627"/>
<line fill="none" stroke="#000000" stroke-width="2" x1="311.75" y1="455.732" x2="473.25" y2="455.732"/>
<line fill="none" stroke="#000000" stroke-width="2" x1="311.75" y1="489.737" x2="473.25" y2="489.737"/>
<line fill="none" stroke="#000000" stroke-width="2" x1="311.75" y1="523.742" x2="473.25" y2="523.742"/>
<polyline fill="#FFFFFF" stroke="#000000" stroke-width="2" points="473.75,557.877 473.75,387.622 634.891,387.622 "/>
<line fill="none" stroke="#000000" stroke-width="2" x1="635.25" y1="387.622" x2="635.25" y2="557.122"/>
<polyline fill="none" stroke="#000000" stroke-width="2" points="473.75,557.5 506.365,557.5 538.933,557.5 571.547,557.5 
	604.162,557.5 635.25,557.5 "/>
<line fill="none" stroke="#000000" stroke-width="2" x1="506.365" y1="387.622" x2="506.365" y2="557.5"/>
<line fill="none" stroke="#000000" stroke-width="2" x1="538.933" y1="387.622" x2="538.933" y2="557.5"/>
<line fill="none" stroke="#000000" stroke-width="2" x1="571.547" y1="387.622" x2="571.547" y2="557.5"/>
<line fill="none" stroke="#000000" stroke-width="2" x1="604.162" y1="387.622" x2="604.162" y2="557.5"/>
<line fill="none" stroke="#000000" stroke-width="2" x1="473.75" y1="421.627" x2="635.25" y2="421.627"/>
<line fill="none" stroke="#000000" stroke-width="2" x1="473.75" y1="455.732" x2="635.25" y2="455.732"/>
<line fill="none" stroke="#000000" stroke-width="2" x1="473.75" y1="489.737" x2="635.25" y2="489.737"/>
<line fill="none" stroke="#000000" stroke-width="2" x1="473.75" y1="523.742" x2="635.25" y2="523.742"/>
</svg>
