<?xml version="1.0" encoding="utf-8"?>
<!-- Generator: Adobe Illustrator 14.0.0, SVG Export Plug-In . SVG Version: 6.00 Build 43363)  -->
<!DOCTYPE svg PUBLIC "-//W3C//DTD SVG 1.1//EN" "http://www.w3.org/Graphics/SVG/1.1/DTD/svg11.dtd">
<svg version="1.1" id="Livello_1" xmlns="http://www.w3.org/2000/svg" xmlns:xlink="http://www.w3.org/1999/xlink" x="0px" y="0px"
	 width="800px" height="600px" viewBox="0 0 800 600" enable-background="new 0 0 800 600" xml:space="preserve">
<g>
	<rect x="399.5" y="223.5" fill="none" stroke="#000000" stroke-width="2" width="84.25" height="76.885"/>
	<rect x="483.75" y="223.5" fill="none" stroke="#000000" stroke-width="2" width="84.25" height="76.885"/>
	<rect x="568" y="223.5" fill="none" stroke="#000000" stroke-width="2" width="84.25" height="76.885"/>
	<rect x="652.25" y="223.5" fill="none" stroke="#000000" stroke-width="2" width="84.25" height="76.885"/>
	<rect x="399.5" y="299.616" fill="none" stroke="#000000" stroke-width="2" width="84.25" height="76.884"/>
	<rect x="483.75" y="299.616" fill="none" stroke="#000000" stroke-width="2" width="84.25" height="76.884"/>
	<rect x="568" y="299.616" fill="none" stroke="#000000" stroke-width="2" width="84.25" height="76.884"/>
	<rect x="652.25" y="299.616" fill="none" stroke="#000000" stroke-width="2" width="84.25" height="76.884"/>
	<rect x="63.5" y="223.5" fill="none" stroke="#000000" stroke-width="2" width="84.25" height="76.885"/>
	<rect x="147.75" y="223.5" fill="none" stroke="#000000" stroke-width="2" width="84.25" height="76.885"/>
	<rect x="232" y="223.5" fill="none" stroke="#000000" stroke-width="2" width="84.25" height="76.885"/>
	<rect x="316.25" y="223.5" fill="none" stroke="#000000" stroke-width="2" width="84.25" height="76.885"/>
	<rect x="63.5" y="299.616" fill="none" stroke="#000000" stroke-width="2" width="84.25" height="76.884"/>
	<rect x="147.75" y="299.616" fill="none" stroke="#000000" stroke-width="2" width="84.25" height="76.884"/>
	<rect x="232" y="299.616" fill="none" stroke="#000000" stroke-width="2" width="84.25" height="76.884"/>
	<rect x="316.25" y="299.616" fill="none" stroke="#000000" stroke-width="2" width="84.25" height="76.884"/>
</g>
</svg>
