<?xml version="1.0" encoding="utf-8"?>
<!-- Generator: Adobe Illustrator 14.0.0, SVG Export Plug-In . SVG Version: 6.00 Build 43363)  -->
<!DOCTYPE svg PUBLIC "-//W3C//DTD SVG 1.1//EN" "http://www.w3.org/Graphics/SVG/1.1/DTD/svg11.dtd">
<svg version="1.1" id="Livello_1" xmlns="http://www.w3.org/2000/svg" xmlns:xlink="http://www.w3.org/1999/xlink" x="0px" y="0px"
	 width="800px" height="600px" viewBox="0 0 800 600" enable-background="new 0 0 800 600" xml:space="preserve">
<g>
	<rect x="60" y="232" fill="none" stroke="#000000" stroke-width="2" width="68" height="68.341"/>
	<rect x="128" y="232" fill="none" stroke="#000000" stroke-width="2" width="68" height="68.341"/>
	<rect x="196" y="232" fill="none" stroke="#000000" stroke-width="2" width="68" height="68.341"/>
	<rect x="264" y="232" fill="none" stroke="#000000" stroke-width="2" width="68" height="68.341"/>
	<rect x="332" y="232" fill="none" stroke="#000000" stroke-width="2" width="68" height="68.341"/>
	<rect x="60" y="299.658" fill="none" stroke="#000000" stroke-width="2" width="68" height="68.342"/>
	<rect x="128" y="299.658" fill="none" stroke="#000000" stroke-width="2" width="68" height="68.342"/>
	<rect x="196" y="299.658" fill="none" stroke="#000000" stroke-width="2" width="68" height="68.342"/>
	<rect x="264" y="299.658" fill="none" stroke="#000000" stroke-width="2" width="68" height="68.342"/>
	<rect x="332" y="299.658" fill="none" stroke="#000000" stroke-width="2" width="68" height="68.342"/>
	<rect x="400" y="232" fill="none" stroke="#000000" stroke-width="2" width="68" height="68.341"/>
	<rect x="468" y="232" fill="none" stroke="#000000" stroke-width="2" width="68" height="68.341"/>
	<rect x="536" y="232" fill="none" stroke="#000000" stroke-width="2" width="68" height="68.341"/>
	<rect x="604" y="232" fill="none" stroke="#000000" stroke-width="2" width="68" height="68.341"/>
	<rect x="672" y="232" fill="none" stroke="#000000" stroke-width="2" width="68" height="68.341"/>
	<rect x="400" y="299.658" fill="none" stroke="#000000" stroke-width="2" width="68" height="68.342"/>
	<rect x="468" y="299.658" fill="none" stroke="#000000" stroke-width="2" width="68" height="68.342"/>
	<rect x="536" y="299.658" fill="none" stroke="#000000" stroke-width="2" width="68" height="68.342"/>
	<rect x="604" y="299.658" fill="none" stroke="#000000" stroke-width="2" width="68" height="68.342"/>
	<rect x="672" y="299.658" fill="none" stroke="#000000" stroke-width="2" width="68" height="68.342"/>
</g>
</svg>
