<?xml version="1.0" encoding="utf-8"?>
<!-- Generator: Adobe Illustrator 14.0.0, SVG Export Plug-In . SVG Version: 6.00 Build 43363)  -->
<!DOCTYPE svg PUBLIC "-//W3C//DTD SVG 1.1//EN" "http://www.w3.org/Graphics/SVG/1.1/DTD/svg11.dtd">
<svg version="1.1" id="Livello_1" xmlns="http://www.w3.org/2000/svg" xmlns:xlink="http://www.w3.org/1999/xlink" x="0px" y="0px"
	 width="800px" height="600px" viewBox="0 0 800 600" enable-background="new 0 0 800 600" xml:space="preserve">
<g>
	<circle fill="#545454" stroke="#000000" stroke-width="2" cx="205.036" cy="205.386" r="30"/>
	<circle fill="#545454" stroke="#000000" stroke-width="2" cx="302.036" cy="205.386" r="30"/>
	<circle fill="#545454" stroke="#000000" stroke-width="2" cx="399.012" cy="205.386" r="30"/>
	<circle fill="#545454" stroke="#000000" stroke-width="2" cx="497.036" cy="204.886" r="30"/>
	<circle fill="#545454" stroke="#000000" stroke-width="2" cx="594.036" cy="205.386" r="30"/>
	<circle fill="#545454" stroke="#000000" stroke-width="2" cx="205.036" cy="300.386" r="30"/>
	<circle fill="#545454" stroke="#000000" stroke-width="2" cx="302.036" cy="300.386" r="30"/>
	<circle fill="#545454" stroke="#000000" stroke-width="2" cx="399.012" cy="300.386" r="30"/>
	<circle fill="#545454" stroke="#000000" stroke-width="2" cx="497.036" cy="300.636" r="30"/>
	<circle fill="#545454" stroke="#000000" stroke-width="2" cx="594.036" cy="300.636" r="30"/>
	<circle fill="#545454" stroke="#000000" stroke-width="2" cx="205.036" cy="395.184" r="30"/>
	<circle fill="#545454" stroke="#000000" stroke-width="2" cx="302.036" cy="395.184" r="30"/>
	<circle fill="#545454" stroke="#000000" stroke-width="2" cx="399.012" cy="395.184" r="30"/>
	<circle fill="#545454" stroke="#000000" stroke-width="2" cx="497.036" cy="395.184" r="30"/>
	<circle fill="#545454" stroke="#000000" stroke-width="2" cx="594.036" cy="395.184" r="30"/>
	<circle fill="#545454" stroke="#000000" stroke-width="2" cx="206.429" cy="491.102" r="30"/>
	<circle fill="#545454" stroke="#000000" stroke-width="2" cx="303.429" cy="491.102" r="30"/>
	<circle fill="#545454" stroke="#000000" stroke-width="2" cx="400.404" cy="491.102" r="30"/>
	<circle fill="#545454" stroke="#000000" stroke-width="2" cx="497.357" cy="491.102" r="30"/>
	<circle fill="#545454" stroke="#000000" stroke-width="2" cx="594.964" cy="491.102" r="30"/>
	<circle fill="#545454" stroke="#000000" stroke-width="2" cx="205.804" cy="108.898" r="30"/>
	<circle fill="#545454" stroke="#000000" stroke-width="2" cx="302.804" cy="108.898" r="30"/>
	<circle fill="#545454" stroke="#000000" stroke-width="2" cx="399.779" cy="108.898" r="30"/>
	<circle fill="#545454" stroke="#000000" stroke-width="2" cx="496.732" cy="108.898" r="30"/>
	<circle fill="#545454" stroke="#000000" stroke-width="2" cx="594.339" cy="108.898" r="30"/>
</g>
</svg>
