<?xml version="1.0" encoding="utf-8"?>
<!-- Generator: Adobe Illustrator 14.0.0, SVG Export Plug-In . SVG Version: 6.00 Build 43363)  -->
<!DOCTYPE svg PUBLIC "-//W3C//DTD SVG 1.1//EN" "http://www.w3.org/Graphics/SVG/1.1/DTD/svg11.dtd">
<svg version="1.1" id="Livello_1" xmlns="http://www.w3.org/2000/svg" xmlns:xlink="http://www.w3.org/1999/xlink" x="0px" y="0px"
	 width="800px" height="600px" viewBox="0 0 800 600" enable-background="new 0 0 800 600" xml:space="preserve">
<g>
	<ellipse fill="#545454" stroke="#000000" stroke-width="2" cx="130.928" cy="126.646" rx="27.604" ry="27.614"/>
	<ellipse fill="#545454" stroke="#000000" stroke-width="2" cx="220.18" cy="126.646" rx="27.604" ry="27.614"/>
	<ellipse fill="#545454" stroke="#000000" stroke-width="2" cx="309.411" cy="126.646" rx="27.604" ry="27.614"/>
	<ellipse fill="#545454" stroke="#000000" stroke-width="2" cx="399.606" cy="126.187" rx="27.604" ry="27.614"/>
	<ellipse fill="#545454" stroke="#000000" stroke-width="2" cx="488.859" cy="126.646" rx="27.604" ry="27.614"/>
	<ellipse fill="#545454" stroke="#000000" stroke-width="2" cx="578.113" cy="126.646" rx="27.604" ry="27.614"/>
	<ellipse fill="#545454" stroke="#000000" stroke-width="2" cx="130.928" cy="214.092" rx="27.604" ry="27.614"/>
	<ellipse fill="#545454" stroke="#000000" stroke-width="2" cx="220.18" cy="214.092" rx="27.604" ry="27.614"/>
	<ellipse fill="#545454" stroke="#000000" stroke-width="2" cx="309.411" cy="214.092" rx="27.604" ry="27.614"/>
	<ellipse fill="#545454" stroke="#000000" stroke-width="2" cx="399.606" cy="214.322" rx="27.604" ry="27.614"/>
	<ellipse fill="#545454" stroke="#000000" stroke-width="2" cx="488.859" cy="214.322" rx="27.604" ry="27.614"/>
	<ellipse fill="#545454" stroke="#000000" stroke-width="2" cx="578.09" cy="214.322" rx="27.604" ry="27.614"/>
	<ellipse fill="#545454" stroke="#000000" stroke-width="2" cx="130.928" cy="301.351" rx="27.604" ry="27.614"/>
	<ellipse fill="#545454" stroke="#000000" stroke-width="2" cx="220.18" cy="301.351" rx="27.604" ry="27.614"/>
	<ellipse fill="#545454" stroke="#000000" stroke-width="2" cx="309.411" cy="301.351" rx="27.604" ry="27.614"/>
	<ellipse fill="#545454" stroke="#000000" stroke-width="2" cx="399.606" cy="301.351" rx="27.604" ry="27.614"/>
	<ellipse fill="#545454" stroke="#000000" stroke-width="2" cx="488.859" cy="301.351" rx="27.604" ry="27.614"/>
	<ellipse fill="#545454" stroke="#000000" stroke-width="2" cx="578.09" cy="301.351" rx="27.604" ry="27.614"/>
	<path fill="#545454" stroke="#000000" stroke-width="2" d="M668.219,97.651c15.248,0,27.604,12.362,27.604,27.614
		c0,15.251-12.355,27.614-27.604,27.614c-15.244,0-27.604-12.363-27.604-27.614S652.975,97.651,668.219,97.651z"/>
	<path fill="#545454" stroke="#000000" stroke-width="2" d="M668.219,185.16c15.248,0,27.604,12.362,27.604,27.614
		c0,15.251-12.355,27.614-27.604,27.614c-15.244,0-27.604-12.363-27.604-27.614C640.615,197.521,652.975,185.16,668.219,185.16z"/>
	<path fill="#545454" stroke="#000000" stroke-width="2" d="M668.219,273.736c15.248,0,27.604,12.363,27.604,27.615
		c0,15.25-12.355,27.613-27.604,27.613c-15.244,0-27.604-12.363-27.604-27.613C640.615,286.101,652.975,273.736,668.219,273.736z"/>
	<ellipse fill="#545454" stroke="#000000" stroke-width="2" cx="132.209" cy="389.643" rx="27.604" ry="27.613"/>
	<ellipse fill="#545454" stroke="#000000" stroke-width="2" cx="221.462" cy="389.643" rx="27.604" ry="27.613"/>
	<ellipse fill="#545454" stroke="#000000" stroke-width="2" cx="310.693" cy="389.643" rx="27.604" ry="27.613"/>
	<ellipse fill="#545454" stroke="#000000" stroke-width="2" cx="399.902" cy="389.643" rx="27.604" ry="27.613"/>
	<ellipse fill="#545454" stroke="#000000" stroke-width="2" cx="489.713" cy="389.643" rx="27.604" ry="27.613"/>
	<ellipse fill="#545454" stroke="#000000" stroke-width="2" cx="578.943" cy="389.643" rx="27.604" ry="27.613"/>
	<path fill="#545454" stroke="#000000" stroke-width="2" d="M669.072,362.027c15.248,0,27.604,12.363,27.604,27.613
		c0,15.252-12.354,27.615-27.604,27.615c-15.244,0-27.604-12.363-27.604-27.615C641.469,374.391,653.828,362.027,669.072,362.027z"
		/>
	<ellipse fill="#545454" stroke="#000000" stroke-width="2" cx="131.634" cy="37.833" rx="27.604" ry="27.614"/>
	<ellipse fill="#545454" stroke="#000000" stroke-width="2" cx="220.887" cy="37.833" rx="27.604" ry="27.614"/>
	<ellipse fill="#545454" stroke="#000000" stroke-width="2" cx="310.118" cy="37.833" rx="27.604" ry="27.614"/>
	<ellipse fill="#545454" stroke="#000000" stroke-width="2" cx="399.327" cy="37.833" rx="27.603" ry="27.614"/>
	<ellipse fill="#545454" stroke="#000000" stroke-width="2" cx="489.139" cy="37.833" rx="27.604" ry="27.614"/>
	<path fill="#545454" stroke="#000000" stroke-width="2" d="M578.367,10.218c15.248,0,27.604,12.363,27.604,27.614
		s-12.354,27.614-27.604,27.614c-15.244,0-27.604-12.363-27.604-27.614S563.123,10.218,578.367,10.218z"/>
	<ellipse fill="#545454" stroke="#000000" stroke-width="2" cx="668.498" cy="37.833" rx="27.604" ry="27.614"/>
	<ellipse fill="#545454" stroke="#000000" stroke-width="2" cx="131.141" cy="476.86" rx="27.604" ry="27.614"/>
	<ellipse fill="#545454" stroke="#000000" stroke-width="2" cx="220.394" cy="476.86" rx="27.604" ry="27.614"/>
	<ellipse fill="#545454" stroke="#000000" stroke-width="2" cx="309.625" cy="476.86" rx="27.604" ry="27.614"/>
	<ellipse fill="#545454" stroke="#000000" stroke-width="2" cx="399.82" cy="477.091" rx="27.604" ry="27.614"/>
	<ellipse fill="#545454" stroke="#000000" stroke-width="2" cx="489.074" cy="477.091" rx="27.604" ry="27.614"/>
	<ellipse fill="#545454" stroke="#000000" stroke-width="2" cx="578.303" cy="477.091" rx="27.604" ry="27.614"/>
	<path fill="#545454" stroke="#000000" stroke-width="2" d="M668.434,447.928c15.246,0,27.604,12.361,27.604,27.615
		c0,15.25-12.357,27.613-27.604,27.613c-15.246,0-27.604-12.363-27.604-27.613C640.828,460.289,653.188,447.928,668.434,447.928z"/>
	<ellipse fill="#545454" stroke="#000000" stroke-width="2" cx="131.569" cy="562.166" rx="27.604" ry="27.615"/>
	<ellipse fill="#545454" stroke="#000000" stroke-width="2" cx="220.822" cy="562.166" rx="27.604" ry="27.615"/>
	<ellipse fill="#545454" stroke="#000000" stroke-width="2" cx="310.052" cy="562.166" rx="27.604" ry="27.615"/>
	<ellipse fill="#545454" stroke="#000000" stroke-width="2" cx="399.262" cy="562.166" rx="27.604" ry="27.615"/>
	<ellipse fill="#545454" stroke="#000000" stroke-width="2" cx="489.072" cy="562.166" rx="27.604" ry="27.615"/>
	<ellipse fill="#545454" stroke="#000000" stroke-width="2" cx="578.303" cy="562.166" rx="27.604" ry="27.615"/>
	<ellipse fill="#545454" stroke="#000000" stroke-width="2" cx="668.432" cy="562.166" rx="27.605" ry="27.615"/>
</g>
</svg>
