<?xml version="1.0" encoding="utf-8"?>
<!-- Generator: Adobe Illustrator 14.0.0, SVG Export Plug-In . SVG Version: 6.00 Build 43363)  -->
<!DOCTYPE svg PUBLIC "-//W3C//DTD SVG 1.1//EN" "http://www.w3.org/Graphics/SVG/1.1/DTD/svg11.dtd">
<svg version="1.1" id="Livello_1" xmlns="http://www.w3.org/2000/svg" xmlns:xlink="http://www.w3.org/1999/xlink" x="0px" y="0px"
	 width="800px" height="600px" viewBox="0 0 800 600" enable-background="new 0 0 800 600" xml:space="preserve">
<path fill="#FFFFFF" stroke="#000000" stroke-width="2" d="M250.5,294"/>
<polyline fill="#FFFFFF" stroke="#000000" stroke-width="2" points="150.5,294 150.5,194 250.5,194 "/>
<path fill="#FFFFFF" stroke="#000000" stroke-width="2" d="M250.5,294"/>
<path fill="#FFFFFF" stroke="#000000" stroke-width="2" d="M350.5,294"/>
<line fill="#FFFFFF" stroke="#000000" stroke-width="2" x1="250.5" y1="194" x2="350.5" y2="194"/>
<path fill="#FFFFFF" stroke="#000000" stroke-width="2" d="M350.5,294"/>
<path fill="#FFFFFF" stroke="#000000" stroke-width="2" d="M450.5,294"/>
<line fill="#FFFFFF" stroke="#000000" stroke-width="2" x1="350.5" y1="194" x2="450.5" y2="194"/>
<path fill="#FFFFFF" stroke="#000000" stroke-width="2" d="M550.5,294"/>
<line fill="#FFFFFF" stroke="#000000" stroke-width="2" x1="450.5" y1="194" x2="550.5" y2="194"/>
<path fill="#FFFFFF" stroke="#000000" stroke-width="2" d="M450.5,294"/>
<path fill="#FFFFFF" stroke="#000000" stroke-width="2" d="M550.5,294"/>
<polyline fill="#FFFFFF" stroke="#000000" stroke-width="2" points="550.5,194 650.5,194 650.5,294 "/>
<polyline fill="#FFFFFF" stroke="#000000" stroke-width="2" points="250.5,393 150.5,393 150.5,293 "/>
<path fill="#FFFFFF" stroke="#000000" stroke-width="2" d="M250.5,293"/>
<path fill="#FFFFFF" stroke="#000000" stroke-width="2" d="M250.5,293"/>
<line fill="#FFFFFF" stroke="#000000" stroke-width="2" x1="350.5" y1="393" x2="250.5" y2="393"/>
<path fill="#FFFFFF" stroke="#000000" stroke-width="2" d="M350.5,293"/>
<path fill="#FFFFFF" stroke="#000000" stroke-width="2" d="M350.5,293"/>
<line fill="#FFFFFF" stroke="#000000" stroke-width="2" x1="450.5" y1="393" x2="350.5" y2="393"/>
<path fill="#FFFFFF" stroke="#000000" stroke-width="2" d="M450.5,293"/>
<path fill="#FFFFFF" stroke="#000000" stroke-width="2" d="M450.5,293"/>
<line fill="#FFFFFF" stroke="#000000" stroke-width="2" x1="550.5" y1="393" x2="450.5" y2="393"/>
<path fill="#FFFFFF" stroke="#000000" stroke-width="2" d="M550.5,293"/>
<path fill="#FFFFFF" stroke="#000000" stroke-width="2" d="M550.5,293"/>
<polyline fill="#FFFFFF" stroke="#000000" stroke-width="2" points="650.5,293 650.5,393 550.5,393 "/>
<circle fill="#545454" stroke="#000000" stroke-width="2" cx="200.5" cy="243.368" r="30"/>
<circle fill="#545454" stroke="#000000" stroke-width="2" cx="300.5" cy="243.368" r="30"/>
<circle fill="#545454" stroke="#000000" stroke-width="2" cx="400.5" cy="243.368" r="30"/>
<circle fill="#545454" stroke="#000000" stroke-width="2" cx="500.357" cy="243.368" r="30"/>
<circle fill="#545454" stroke="#000000" stroke-width="2" cx="600.5" cy="243.368" r="30"/>
<circle fill="#545454" stroke="#000000" stroke-width="2" cx="200.5" cy="343" r="30"/>
<circle fill="#545454" stroke="#000000" stroke-width="2" cx="300.5" cy="343" r="30"/>
<circle fill="#545454" stroke="#000000" stroke-width="2" cx="400.5" cy="342.25" r="30"/>
<circle fill="#545454" stroke="#000000" stroke-width="2" cx="500.357" cy="342.25" r="30"/>
<circle fill="#545454" stroke="#000000" stroke-width="2" cx="600.5" cy="342.25" r="30"/>
</svg>
