<?xml version="1.0" encoding="utf-8"?>
<!-- Generator: Adobe Illustrator 14.0.0, SVG Export Plug-In . SVG Version: 6.00 Build 43363)  -->
<!DOCTYPE svg PUBLIC "-//W3C//DTD SVG 1.1//EN" "http://www.w3.org/Graphics/SVG/1.1/DTD/svg11.dtd">
<svg version="1.1" id="Livello_1" xmlns="http://www.w3.org/2000/svg" xmlns:xlink="http://www.w3.org/1999/xlink" x="0px" y="0px"
	 width="800px" height="600px" viewBox="0 0 800 600" enable-background="new 0 0 800 600" xml:space="preserve">
<g>
	<line fill="none" stroke="#000000" stroke-width="2" x1="227" y1="53.632" x2="227" y2="547.632"/>
	<line fill="none" stroke="#000000" stroke-width="2" x1="284.612" y1="53.632" x2="284.612" y2="547.632"/>
	<line fill="none" stroke="#000000" stroke-width="2" x1="342.139" y1="53.632" x2="342.139" y2="547.632"/>
	<line fill="none" stroke="#000000" stroke-width="2" x1="399.75" y1="53.632" x2="399.75" y2="547.632"/>
	<line fill="none" stroke="#000000" stroke-width="2" x1="457.362" y1="53.632" x2="457.362" y2="547.632"/>
	<line fill="none" stroke="#000000" stroke-width="2" x1="514.889" y1="53.632" x2="514.889" y2="547.632"/>
	<line fill="none" stroke="#000000" stroke-width="2" x1="572.5" y1="53.632" x2="572.5" y2="547.632"/>
	<circle stroke="#000000" stroke-width="2" cx="226" cy="53.368" r="10"/>
	<circle stroke="#000000" stroke-width="2" cx="227" cy="547.632" r="10"/>
	<circle stroke="#000000" stroke-width="2" cx="283.612" cy="53.368" r="10"/>
	<circle stroke="#000000" stroke-width="2" cx="283.612" cy="547.632" r="10"/>
	<circle stroke="#000000" stroke-width="2" cx="341.889" cy="53.632" r="10"/>
	<circle stroke="#000000" stroke-width="2" cx="341.889" cy="547.632" r="10"/>
	<circle stroke="#000000" stroke-width="2" cx="397.75" cy="53.368" r="10"/>
	<circle stroke="#000000" stroke-width="2" cx="399.75" cy="547.632" r="10"/>
	<circle stroke="#000000" stroke-width="2" cx="457.362" cy="53.368" r="10"/>
	<circle stroke="#000000" stroke-width="2" cx="457.362" cy="547.632" r="10"/>
	<circle stroke="#000000" stroke-width="2" cx="514.889" cy="52.368" r="10"/>
	<circle stroke="#000000" stroke-width="2" cx="514.889" cy="547.632" r="10"/>
	<circle stroke="#000000" stroke-width="2" cx="572.5" cy="53.368" r="10"/>
	<circle stroke="#000000" stroke-width="2" cx="574" cy="547.368" r="10"/>
</g>
</svg>
