<?xml version="1.0" encoding="utf-8"?>
<!-- Generator: Adobe Illustrator 14.0.0, SVG Export Plug-In . SVG Version: 6.00 Build 43363)  -->
<!DOCTYPE svg PUBLIC "-//W3C//DTD SVG 1.1//EN" "http://www.w3.org/Graphics/SVG/1.1/DTD/svg11.dtd">
<svg version="1.1" id="Livello_1" xmlns="http://www.w3.org/2000/svg" xmlns:xlink="http://www.w3.org/1999/xlink" x="0px" y="0px"
	 width="800px" height="600px" viewBox="0 0 800 600" enable-background="new 0 0 800 600" xml:space="preserve">
<g>
	<line fill="none" stroke="#000000" stroke-width="2" x1="170.681" y1="53.632" x2="170.681" y2="547.632"/>
	<line fill="none" stroke="#000000" stroke-width="2" x1="228.293" y1="53.632" x2="228.293" y2="547.632"/>
	<line fill="none" stroke="#000000" stroke-width="2" x1="285.819" y1="53.632" x2="285.819" y2="547.632"/>
	<line fill="none" stroke="#000000" stroke-width="2" x1="343.431" y1="53.632" x2="343.431" y2="547.632"/>
	<line fill="none" stroke="#000000" stroke-width="2" x1="401.043" y1="53.632" x2="401.043" y2="547.632"/>
	<line fill="none" stroke="#000000" stroke-width="2" x1="458.569" y1="53.632" x2="458.569" y2="547.632"/>
	<line fill="none" stroke="#000000" stroke-width="2" x1="516.181" y1="53.632" x2="516.181" y2="547.632"/>
	<line fill="none" stroke="#000000" stroke-width="2" x1="573.792" y1="53.632" x2="573.792" y2="547.632"/>
	<line fill="none" stroke="#000000" stroke-width="2" x1="631.319" y1="53.632" x2="631.319" y2="547.632"/>
	<circle stroke="#000000" stroke-width="2" cx="169.681" cy="53.368" r="10"/>
	<circle stroke="#000000" stroke-width="2" cx="170.681" cy="547.632" r="10"/>
	<circle stroke="#000000" stroke-width="2" cx="227.293" cy="53.368" r="10"/>
	<circle stroke="#000000" stroke-width="2" cx="227.293" cy="547.632" r="10"/>
	<circle stroke="#000000" stroke-width="2" cx="285.569" cy="53.632" r="10"/>
	<circle stroke="#000000" stroke-width="2" cx="285.569" cy="547.632" r="10"/>
	<circle stroke="#000000" stroke-width="2" cx="341.431" cy="53.368" r="10"/>
	<circle stroke="#000000" stroke-width="2" cx="343.431" cy="547.632" r="10"/>
	<circle stroke="#000000" stroke-width="2" cx="401.043" cy="53.368" r="10"/>
	<circle stroke="#000000" stroke-width="2" cx="401.043" cy="547.632" r="10"/>
	<circle stroke="#000000" stroke-width="2" cx="458.569" cy="52.368" r="10"/>
	<circle stroke="#000000" stroke-width="2" cx="458.569" cy="547.632" r="10"/>
	<circle stroke="#000000" stroke-width="2" cx="516.181" cy="53.368" r="10"/>
	<circle stroke="#000000" stroke-width="2" cx="517.681" cy="547.368" r="10"/>
	<circle stroke="#000000" stroke-width="2" cx="572.792" cy="53.368" r="10"/>
	<circle stroke="#000000" stroke-width="2" cx="572.792" cy="547.632" r="10"/>
	<circle stroke="#000000" stroke-width="2" cx="630.319" cy="53.368" r="10"/>
	<circle stroke="#000000" stroke-width="2" cx="630.319" cy="547.632" r="10"/>
</g>
</svg>
