<?xml version="1.0" encoding="utf-8"?>
<!-- Generator: Adobe Illustrator 14.0.0, SVG Export Plug-In . SVG Version: 6.00 Build 43363)  -->
<!DOCTYPE svg PUBLIC "-//W3C//DTD SVG 1.1//EN" "http://www.w3.org/Graphics/SVG/1.1/DTD/svg11.dtd">
<svg version="1.1" id="Livello_1" xmlns="http://www.w3.org/2000/svg" xmlns:xlink="http://www.w3.org/1999/xlink" x="0px" y="0px"
	 width="800px" height="600px" viewBox="0 0 800 600" enable-background="new 0 0 800 600" xml:space="preserve">
<line fill="none" stroke="#000000" stroke-width="2" x1="112.069" y1="53.632" x2="112.069" y2="547.632"/>
<line fill="none" stroke="#000000" stroke-width="2" x1="169.681" y1="53.632" x2="169.681" y2="547.632"/>
<line fill="none" stroke="#000000" stroke-width="2" x1="227.208" y1="53.632" x2="227.208" y2="547.632"/>
<line fill="none" stroke="#000000" stroke-width="2" x1="284.819" y1="53.632" x2="284.819" y2="547.632"/>
<line fill="none" stroke="#000000" stroke-width="2" x1="342.431" y1="53.632" x2="342.431" y2="547.632"/>
<line fill="none" stroke="#000000" stroke-width="2" x1="399.958" y1="53.632" x2="399.958" y2="547.632"/>
<line fill="none" stroke="#000000" stroke-width="2" x1="457.569" y1="53.632" x2="457.569" y2="547.632"/>
<line fill="none" stroke="#000000" stroke-width="2" x1="515.181" y1="53.632" x2="515.181" y2="547.632"/>
<line fill="none" stroke="#000000" stroke-width="2" x1="572.708" y1="53.632" x2="572.708" y2="547.632"/>
<line fill="none" stroke="#000000" stroke-width="2" x1="630.319" y1="53.632" x2="630.319" y2="547.632"/>
<line fill="none" stroke="#000000" stroke-width="2" x1="687.931" y1="53.632" x2="687.931" y2="547.632"/>
<circle stroke="#000000" stroke-width="2" cx="111.069" cy="53.368" r="10"/>
<circle stroke="#000000" stroke-width="2" cx="112.069" cy="547.632" r="10"/>
<circle stroke="#000000" stroke-width="2" cx="168.681" cy="53.368" r="10"/>
<circle stroke="#000000" stroke-width="2" cx="168.681" cy="547.632" r="10"/>
<circle stroke="#000000" stroke-width="2" cx="226.958" cy="53.632" r="10"/>
<circle stroke="#000000" stroke-width="2" cx="226.958" cy="547.632" r="10"/>
<circle stroke="#000000" stroke-width="2" cx="284.819" cy="53.368" r="10"/>
<circle stroke="#000000" stroke-width="2" cx="284.819" cy="547.632" r="10"/>
<circle stroke="#000000" stroke-width="2" cx="342.431" cy="53.368" r="10"/>
<circle stroke="#000000" stroke-width="2" cx="342.431" cy="547.632" r="10"/>
<circle stroke="#000000" stroke-width="2" cx="399.958" cy="52.368" r="10"/>
<circle stroke="#000000" stroke-width="2" cx="399.958" cy="547.632" r="10"/>
<circle stroke="#000000" stroke-width="2" cx="457.569" cy="53.368" r="10"/>
<circle stroke="#000000" stroke-width="2" cx="459.069" cy="547.368" r="10"/>
<circle stroke="#000000" stroke-width="2" cx="514.181" cy="53.368" r="10"/>
<circle stroke="#000000" stroke-width="2" cx="514.181" cy="547.632" r="10"/>
<circle stroke="#000000" stroke-width="2" cx="571.708" cy="53.368" r="10"/>
<circle stroke="#000000" stroke-width="2" cx="571.708" cy="547.632" r="10"/>
<circle stroke="#000000" stroke-width="2" cx="630.319" cy="547.368" r="10"/>
<circle stroke="#000000" stroke-width="2" cx="687.931" cy="547.368" r="10"/>
<circle stroke="#000000" stroke-width="2" cx="630.319" cy="53.368" r="10"/>
<circle stroke="#000000" stroke-width="2" cx="688.931" cy="53.368" r="10"/>
</svg>
