<?xml version="1.0" encoding="utf-8"?>
<!-- Generator: Adobe Illustrator 14.0.0, SVG Export Plug-In . SVG Version: 6.00 Build 43363)  -->
<!DOCTYPE svg PUBLIC "-//W3C//DTD SVG 1.1//EN" "http://www.w3.org/Graphics/SVG/1.1/DTD/svg11.dtd">
<svg version="1.1" id="Livello_1" xmlns="http://www.w3.org/2000/svg" xmlns:xlink="http://www.w3.org/1999/xlink" x="0px" y="0px"
	 width="800px" height="600px" viewBox="0 0 800 600" enable-background="new 0 0 800 600" xml:space="preserve">
<g>
	<g>
		<ellipse stroke="#000000" stroke-width="2" cx="43.125" cy="241.501" rx="17.812" ry="16.963"/>
		<ellipse stroke="#000000" stroke-width="2" cx="102.501" cy="241.501" rx="17.812" ry="16.963"/>
		<ellipse stroke="#000000" stroke-width="2" cx="161.862" cy="241.501" rx="17.812" ry="16.963"/>
		<ellipse stroke="#000000" stroke-width="2" cx="221.251" cy="241.218" rx="17.812" ry="16.963"/>
		<ellipse stroke="#000000" stroke-width="2" cx="280.625" cy="241.501" rx="17.812" ry="16.963"/>
		<ellipse stroke="#000000" stroke-width="2" cx="340.001" cy="241.501" rx="17.812" ry="16.963"/>
		<ellipse stroke="#000000" stroke-width="2" cx="43.125" cy="297.479" rx="17.812" ry="16.963"/>
		<ellipse stroke="#000000" stroke-width="2" cx="102.501" cy="297.479" rx="17.812" ry="16.963"/>
		<ellipse stroke="#000000" stroke-width="2" cx="161.862" cy="297.479" rx="17.812" ry="16.963"/>
		<ellipse stroke="#000000" stroke-width="2" cx="221.251" cy="297.622" rx="17.812" ry="16.964"/>
		<ellipse stroke="#000000" stroke-width="2" cx="280.625" cy="297.622" rx="17.812" ry="16.964"/>
		<ellipse stroke="#000000" stroke-width="2" cx="339.987" cy="297.622" rx="17.812" ry="16.964"/>
		<ellipse stroke="#000000" stroke-width="2" cx="43.125" cy="353.91" rx="17.812" ry="16.964"/>
		<ellipse stroke="#000000" stroke-width="2" cx="102.501" cy="353.91" rx="17.812" ry="16.964"/>
		<ellipse stroke="#000000" stroke-width="2" cx="161.862" cy="353.91" rx="17.812" ry="16.964"/>
		<ellipse stroke="#000000" stroke-width="2" cx="221.251" cy="353.91" rx="17.812" ry="16.964"/>
		<ellipse stroke="#000000" stroke-width="2" cx="280.625" cy="353.91" rx="17.812" ry="16.964"/>
		<ellipse stroke="#000000" stroke-width="2" cx="339.987" cy="353.91" rx="17.812" ry="16.964"/>
	</g>
	<g>
		<ellipse stroke="#000000" stroke-width="2" cx="459.999" cy="242.5" rx="17.812" ry="16.963"/>
		<ellipse stroke="#000000" stroke-width="2" cx="519.374" cy="242.5" rx="17.812" ry="16.963"/>
		<ellipse stroke="#000000" stroke-width="2" cx="578.735" cy="242.5" rx="17.812" ry="16.963"/>
		<ellipse stroke="#000000" stroke-width="2" cx="638.124" cy="242.217" rx="17.812" ry="16.963"/>
		<ellipse stroke="#000000" stroke-width="2" cx="697.499" cy="242.5" rx="17.812" ry="16.963"/>
		<ellipse stroke="#000000" stroke-width="2" cx="756.874" cy="242.5" rx="17.812" ry="16.963"/>
		<ellipse stroke="#000000" stroke-width="2" cx="459.999" cy="298.479" rx="17.812" ry="16.963"/>
		<ellipse stroke="#000000" stroke-width="2" cx="519.374" cy="298.479" rx="17.812" ry="16.963"/>
		<ellipse stroke="#000000" stroke-width="2" cx="578.735" cy="298.479" rx="17.812" ry="16.963"/>
		<ellipse stroke="#000000" stroke-width="2" cx="638.124" cy="298.62" rx="17.812" ry="16.963"/>
		<ellipse stroke="#000000" stroke-width="2" cx="697.499" cy="298.62" rx="17.812" ry="16.963"/>
		<ellipse stroke="#000000" stroke-width="2" cx="756.86" cy="298.62" rx="17.812" ry="16.963"/>
		<ellipse stroke="#000000" stroke-width="2" cx="459.999" cy="354.91" rx="17.812" ry="16.963"/>
		<ellipse stroke="#000000" stroke-width="2" cx="519.374" cy="354.91" rx="17.812" ry="16.963"/>
		<ellipse stroke="#000000" stroke-width="2" cx="578.735" cy="354.91" rx="17.812" ry="16.963"/>
		<ellipse stroke="#000000" stroke-width="2" cx="638.124" cy="354.91" rx="17.812" ry="16.963"/>
		<ellipse stroke="#000000" stroke-width="2" cx="697.499" cy="354.91" rx="17.812" ry="16.963"/>
		<ellipse stroke="#000000" stroke-width="2" cx="756.86" cy="354.91" rx="17.812" ry="16.963"/>
	</g>
	<ellipse fill="none" stroke="#000000" stroke-width="2" cx="401.999" cy="233.5" rx="20" ry="20"/>
	<ellipse fill="none" stroke="#000000" stroke-width="2" cx="401.999" cy="298.5" rx="20" ry="20"/>
	<ellipse fill="none" stroke="#000000" stroke-width="2" cx="401.999" cy="366.5" rx="20" ry="20"/>
</g>
</svg>
