<?xml version="1.0" encoding="utf-8"?>
<!-- Generator: Adobe Illustrator 14.0.0, SVG Export Plug-In . SVG Version: 6.00 Build 43363)  -->
<!DOCTYPE svg PUBLIC "-//W3C//DTD SVG 1.1//EN" "http://www.w3.org/Graphics/SVG/1.1/DTD/svg11.dtd">
<svg version="1.1" id="Livello_1" xmlns="http://www.w3.org/2000/svg" xmlns:xlink="http://www.w3.org/1999/xlink" x="0px" y="0px"
	 width="800px" height="600px" viewBox="0 0 800 600" enable-background="new 0 0 800 600" xml:space="preserve">
<ellipse fill="none" stroke="#000000" stroke-width="2" cx="43.126" cy="241.501" rx="17.812" ry="16.963"/>
<ellipse fill="none" stroke="#000000" stroke-width="2" cx="102.502" cy="241.501" rx="17.812" ry="16.963"/>
<ellipse fill="none" stroke="#000000" stroke-width="2" cx="161.863" cy="241.501" rx="17.812" ry="16.963"/>
<ellipse fill="none" stroke="#000000" stroke-width="2" cx="221.252" cy="241.218" rx="17.812" ry="16.963"/>
<ellipse fill="none" stroke="#000000" stroke-width="2" cx="280.626" cy="241.501" rx="17.812" ry="16.963"/>
<ellipse fill="none" stroke="#000000" stroke-width="2" cx="340.002" cy="241.501" rx="17.812" ry="16.963"/>
<ellipse fill="none" stroke="#000000" stroke-width="2" cx="43.126" cy="297.479" rx="17.812" ry="16.963"/>
<ellipse fill="none" stroke="#000000" stroke-width="2" cx="102.502" cy="297.479" rx="17.812" ry="16.963"/>
<ellipse fill="none" stroke="#000000" stroke-width="2" cx="161.863" cy="297.479" rx="17.812" ry="16.963"/>
<ellipse fill="none" stroke="#000000" stroke-width="2" cx="221.252" cy="297.622" rx="17.812" ry="16.964"/>
<ellipse fill="none" stroke="#000000" stroke-width="2" cx="280.626" cy="297.622" rx="17.812" ry="16.964"/>
<ellipse fill="none" stroke="#000000" stroke-width="2" cx="339.988" cy="297.622" rx="17.812" ry="16.964"/>
<ellipse fill="none" stroke="#000000" stroke-width="2" cx="43.126" cy="353.91" rx="17.812" ry="16.964"/>
<ellipse fill="none" stroke="#000000" stroke-width="2" cx="102.502" cy="353.91" rx="17.812" ry="16.964"/>
<ellipse fill="none" stroke="#000000" stroke-width="2" cx="161.863" cy="353.91" rx="17.812" ry="16.964"/>
<ellipse fill="none" stroke="#000000" stroke-width="2" cx="221.252" cy="353.91" rx="17.812" ry="16.964"/>
<ellipse fill="none" stroke="#000000" stroke-width="2" cx="280.626" cy="353.91" rx="17.812" ry="16.964"/>
<ellipse fill="none" stroke="#000000" stroke-width="2" cx="339.988" cy="353.91" rx="17.812" ry="16.964"/>
<ellipse fill="none" stroke="#000000" stroke-width="2" cx="460" cy="242.5" rx="17.812" ry="16.963"/>
<ellipse fill="none" stroke="#000000" stroke-width="2" cx="519.375" cy="242.5" rx="17.812" ry="16.963"/>
<ellipse fill="none" stroke="#000000" stroke-width="2" cx="578.736" cy="242.5" rx="17.812" ry="16.963"/>
<ellipse fill="none" stroke="#000000" stroke-width="2" cx="638.125" cy="242.217" rx="17.812" ry="16.963"/>
<ellipse fill="none" stroke="#000000" stroke-width="2" cx="697.5" cy="242.5" rx="17.812" ry="16.963"/>
<ellipse fill="none" stroke="#000000" stroke-width="2" cx="756.875" cy="242.5" rx="17.812" ry="16.963"/>
<ellipse fill="none" stroke="#000000" stroke-width="2" cx="460" cy="298.479" rx="17.812" ry="16.963"/>
<ellipse fill="none" stroke="#000000" stroke-width="2" cx="519.375" cy="298.479" rx="17.812" ry="16.963"/>
<ellipse fill="none" stroke="#000000" stroke-width="2" cx="578.736" cy="298.479" rx="17.812" ry="16.963"/>
<ellipse fill="none" stroke="#000000" stroke-width="2" cx="638.125" cy="298.62" rx="17.812" ry="16.963"/>
<ellipse fill="none" stroke="#000000" stroke-width="2" cx="697.5" cy="298.62" rx="17.812" ry="16.963"/>
<ellipse fill="none" stroke="#000000" stroke-width="2" cx="756.861" cy="298.62" rx="17.812" ry="16.963"/>
<ellipse fill="none" stroke="#000000" stroke-width="2" cx="460" cy="354.91" rx="17.812" ry="16.963"/>
<ellipse fill="none" stroke="#000000" stroke-width="2" cx="519.375" cy="354.91" rx="17.812" ry="16.963"/>
<ellipse fill="none" stroke="#000000" stroke-width="2" cx="578.736" cy="354.91" rx="17.812" ry="16.963"/>
<ellipse fill="none" stroke="#000000" stroke-width="2" cx="638.125" cy="354.91" rx="17.812" ry="16.963"/>
<ellipse fill="none" stroke="#000000" stroke-width="2" cx="697.5" cy="354.91" rx="17.812" ry="16.963"/>
<ellipse fill="none" stroke="#000000" stroke-width="2" cx="756.861" cy="354.91" rx="17.812" ry="16.963"/>
<path fill="none" stroke="#000000" d="M402,206.5"/>
<path fill="none" stroke="#000000" d="M402,260.5"/>
<path fill="none" stroke="#000000" d="M429,233.5"/>
<path fill="none" stroke="#000000" d="M375,233.5"/>
<line fill="none" stroke="#000000" stroke-width="2" x1="388.5" y1="220" x2="415.5" y2="247"/>
<line fill="none" stroke="#000000" stroke-width="2" x1="388.5" y1="247" x2="415.5" y2="220"/>
<line fill="none" stroke="#000000" stroke-width="2" x1="385.5" y1="286" x2="412.5" y2="313"/>
<line fill="none" stroke="#000000" stroke-width="2" x1="385.5" y1="313" x2="412.5" y2="286"/>
<line fill="none" stroke="#000000" stroke-width="2" x1="385.5" y1="352.012" x2="412.5" y2="379.012"/>
<line fill="none" stroke="#000000" stroke-width="2" x1="385.5" y1="379.012" x2="412.5" y2="352.012"/>
</svg>
