<?xml version="1.0" encoding="utf-8"?>
<!-- Generator: Adobe Illustrator 14.0.0, SVG Export Plug-In . SVG Version: 6.00 Build 43363)  -->
<!DOCTYPE svg PUBLIC "-//W3C//DTD SVG 1.1//EN" "http://www.w3.org/Graphics/SVG/1.1/DTD/svg11.dtd">
<svg version="1.1" id="Livello_1" xmlns="http://www.w3.org/2000/svg" xmlns:xlink="http://www.w3.org/1999/xlink" x="0px" y="0px"
	 width="800px" height="600px" viewBox="0 0 800 600" enable-background="new 0 0 800 600" xml:space="preserve">
<path fill="none" stroke="#000000" d="M402,206.5"/>
<path fill="none" stroke="#000000" d="M402,260.5"/>
<path fill="none" stroke="#000000" d="M429,233.5"/>
<path fill="none" stroke="#000000" stroke-width="2" d="M415.5,220c0,7.456-6.045,13.5-13.5,13.5c-7.456,0-13.5-6.044-13.5-13.5"/>
<path fill="none" stroke="#000000" stroke-width="2" d="M388.5,247c0-7.456,6.044-13.5,13.5-13.5c7.455,0,13.5,6.044,13.5,13.5"/>
<path fill="none" stroke="#000000" stroke-width="2" d="M415.5,247c-7.456,0-13.5-6.044-13.5-13.5s6.044-13.5,13.5-13.5"/>
<path fill="none" stroke="#000000" stroke-width="2" d="M388.5,220c7.455,0,13.5,6.044,13.5,13.5s-6.045,13.5-13.5,13.5"/>
<path fill="none" stroke="#000000" d="M375,233.5"/>
<path fill="none" stroke="#000000" stroke-width="2" d="M412.5,286c0,7.456-6.045,13.5-13.5,13.5c-7.456,0-13.5-6.044-13.5-13.5"/>
<path fill="none" stroke="#000000" stroke-width="2" d="M385.5,313c0-7.456,6.044-13.5,13.5-13.5c7.455,0,13.5,6.044,13.5,13.5"/>
<path fill="none" stroke="#000000" stroke-width="2" d="M412.5,313c-7.456,0-13.5-6.045-13.5-13.5c0-7.456,6.044-13.5,13.5-13.5"/>
<path fill="none" stroke="#000000" stroke-width="2" d="M385.5,286c7.455,0,13.5,6.044,13.5,13.5c0,7.455-6.045,13.5-13.5,13.5"/>
<path fill="none" stroke="#000000" stroke-width="2" d="M412.5,352.012c0,7.455-6.045,13.5-13.5,13.5c-7.456,0-13.5-6.045-13.5-13.5
	"/>
<path fill="none" stroke="#000000" stroke-width="2" d="M385.5,379.012c0-7.456,6.044-13.5,13.5-13.5c7.455,0,13.5,6.044,13.5,13.5"
	/>
<path fill="none" stroke="#000000" stroke-width="2" d="M412.5,379.012c-7.456,0-13.5-6.045-13.5-13.5c0-7.456,6.044-13.5,13.5-13.5
	"/>
<path fill="none" stroke="#000000" stroke-width="2" d="M385.5,352.012c7.455,0,13.5,6.044,13.5,13.5c0,7.455-6.045,13.5-13.5,13.5"
	/>
<rect x="25.126" y="223.501" fill="none" stroke="#000000" stroke-width="2" width="36" height="36"/>
<rect x="203.252" y="222.25" fill="none" stroke="#000000" stroke-width="2" width="36" height="36"/>
<rect x="84.314" y="223.5" fill="none" stroke="#000000" stroke-width="2" width="36" height="36"/>
<rect x="143.863" y="223.218" fill="none" stroke="#000000" stroke-width="2" width="36" height="36"/>
<rect x="262.438" y="223.217" fill="none" stroke="#000000" stroke-width="2" width="36" height="36"/>
<rect x="322.002" y="222.25" fill="none" stroke="#000000" stroke-width="2" width="36" height="36"/>
<rect x="25.126" y="279.479" fill="none" stroke="#000000" stroke-width="2" width="36" height="36"/>
<rect x="84.314" y="279.479" fill="none" stroke="#000000" stroke-width="2" width="36" height="36"/>
<rect x="143.863" y="279.622" fill="none" stroke="#000000" stroke-width="2" width="36" height="36"/>
<rect x="203.252" y="279.479" fill="none" stroke="#000000" stroke-width="2" width="36" height="36"/>
<rect x="262.438" y="280.479" fill="none" stroke="#000000" stroke-width="2" width="36" height="36"/>
<rect x="321.988" y="279.479" fill="none" stroke="#000000" stroke-width="2" width="36" height="36"/>
<rect x="25.314" y="336.535" fill="none" stroke="#000000" stroke-width="2" width="36" height="36"/>
<rect x="203.44" y="335.284" fill="none" stroke="#000000" stroke-width="2" width="36" height="36.001"/>
<rect x="84.502" y="336.535" fill="none" stroke="#000000" stroke-width="2" width="36" height="36"/>
<rect x="144.051" y="336.252" fill="none" stroke="#000000" stroke-width="2" width="36" height="36.002"/>
<rect x="262.625" y="336.252" fill="none" stroke="#000000" stroke-width="2" width="36" height="36"/>
<rect x="322.19" y="335.284" fill="none" stroke="#000000" stroke-width="2" width="36" height="36.001"/>
<rect x="442.252" y="224.358" fill="none" stroke="#000000" stroke-width="2" width="36" height="36"/>
<rect x="620.377" y="223.107" fill="none" stroke="#000000" stroke-width="2" width="36" height="36"/>
<rect x="501.439" y="224.358" fill="none" stroke="#000000" stroke-width="2" width="36" height="36"/>
<rect x="560.988" y="224.075" fill="none" stroke="#000000" stroke-width="2" width="36" height="36"/>
<rect x="679.562" y="224.075" fill="none" stroke="#000000" stroke-width="2" width="36" height="36"/>
<rect x="739.127" y="223.107" fill="none" stroke="#000000" stroke-width="2" width="36" height="36"/>
<rect x="442.252" y="280.336" fill="none" stroke="#000000" stroke-width="2" width="36" height="36"/>
<rect x="501.439" y="280.336" fill="none" stroke="#000000" stroke-width="2" width="36" height="36"/>
<rect x="560.988" y="280.479" fill="none" stroke="#000000" stroke-width="2" width="36" height="36"/>
<rect x="620.377" y="280.336" fill="none" stroke="#000000" stroke-width="2" width="36" height="36"/>
<rect x="679.562" y="281.336" fill="none" stroke="#000000" stroke-width="2" width="36" height="36"/>
<rect x="739.113" y="280.336" fill="none" stroke="#000000" stroke-width="2" width="36" height="36"/>
<rect x="442.439" y="337.393" fill="none" stroke="#000000" stroke-width="2" width="36" height="36"/>
<rect x="620.564" y="336.142" fill="none" stroke="#000000" stroke-width="2" width="36" height="36.001"/>
<rect x="501.627" y="337.393" fill="none" stroke="#000000" stroke-width="2" width="36" height="36"/>
<rect x="561.176" y="337.109" fill="none" stroke="#000000" stroke-width="2" width="36" height="36.002"/>
<rect x="679.75" y="337.109" fill="none" stroke="#000000" stroke-width="2" width="36" height="36"/>
<rect x="739.314" y="336.142" fill="none" stroke="#000000" stroke-width="2" width="36" height="36.001"/>
</svg>
