<?xml version="1.0" encoding="utf-8"?>
<!-- Generator: Adobe Illustrator 14.0.0, SVG Export Plug-In . SVG Version: 6.00 Build 43363)  -->
<!DOCTYPE svg PUBLIC "-//W3C//DTD SVG 1.1//EN" "http://www.w3.org/Graphics/SVG/1.1/DTD/svg11.dtd">
<svg version="1.1" id="Livello_1" xmlns="http://www.w3.org/2000/svg" xmlns:xlink="http://www.w3.org/1999/xlink" x="0px" y="0px"
	 width="800px" height="600px" viewBox="0 0 800 600" enable-background="new 0 0 800 600" xml:space="preserve">
<g>
	<path fill="none" stroke="#000000" d="M428.779,234.994"/>
	<rect x="24.906" y="224.995" fill="none" stroke="#000000" stroke-width="2" width="36" height="36"/>
	<rect x="203.032" y="223.744" fill="none" stroke="#000000" stroke-width="2" width="36" height="36"/>
	<rect x="84.094" y="224.994" fill="none" stroke="#000000" stroke-width="2" width="36" height="36"/>
	<rect x="143.643" y="224.712" fill="none" stroke="#000000" stroke-width="2" width="36" height="36"/>
	<rect x="262.218" y="224.711" fill="none" stroke="#000000" stroke-width="2" width="36" height="36"/>
	<rect x="321.782" y="223.744" fill="none" stroke="#000000" stroke-width="2" width="36" height="36"/>
	<rect x="24.906" y="280.973" fill="none" stroke="#000000" stroke-width="2" width="36" height="36"/>
	<rect x="84.094" y="280.973" fill="none" stroke="#000000" stroke-width="2" width="36" height="36"/>
	<rect x="143.643" y="281.116" fill="none" stroke="#000000" stroke-width="2" width="36" height="36"/>
	<rect x="203.032" y="280.973" fill="none" stroke="#000000" stroke-width="2" width="36" height="36"/>
	<rect x="262.218" y="281.973" fill="none" stroke="#000000" stroke-width="2" width="36" height="36"/>
	<rect x="321.768" y="280.973" fill="none" stroke="#000000" stroke-width="2" width="36" height="36"/>
	<rect x="25.094" y="338.029" fill="none" stroke="#000000" stroke-width="2" width="36" height="36"/>
	<rect x="203.22" y="336.778" fill="none" stroke="#000000" stroke-width="2" width="36" height="36.001"/>
	<rect x="84.282" y="338.029" fill="none" stroke="#000000" stroke-width="2" width="36" height="36"/>
	<rect x="143.831" y="337.746" fill="none" stroke="#000000" stroke-width="2" width="36" height="36.002"/>
	<rect x="262.405" y="337.746" fill="none" stroke="#000000" stroke-width="2" width="36" height="36"/>
	<rect x="321.97" y="336.778" fill="none" stroke="#000000" stroke-width="2" width="36" height="36.001"/>
	<rect x="442.031" y="225.852" fill="none" stroke="#000000" stroke-width="2" width="36" height="36"/>
	<rect x="620.156" y="224.601" fill="none" stroke="#000000" stroke-width="2" width="36" height="36"/>
	<rect x="501.219" y="225.852" fill="none" stroke="#000000" stroke-width="2" width="36" height="36"/>
	<rect x="560.768" y="225.569" fill="none" stroke="#000000" stroke-width="2" width="36" height="36"/>
	<rect x="679.342" y="225.569" fill="none" stroke="#000000" stroke-width="2" width="36" height="36"/>
	<rect x="738.906" y="224.601" fill="none" stroke="#000000" stroke-width="2" width="36" height="36"/>
	<rect x="442.031" y="281.83" fill="none" stroke="#000000" stroke-width="2" width="36" height="36"/>
	<rect x="501.219" y="281.83" fill="none" stroke="#000000" stroke-width="2" width="36" height="36"/>
	<rect x="560.768" y="281.973" fill="none" stroke="#000000" stroke-width="2" width="36" height="36"/>
	<rect x="620.156" y="281.83" fill="none" stroke="#000000" stroke-width="2" width="36" height="36"/>
	<rect x="679.342" y="282.83" fill="none" stroke="#000000" stroke-width="2" width="36" height="36"/>
	<rect x="738.893" y="281.83" fill="none" stroke="#000000" stroke-width="2" width="36" height="36"/>
	<rect x="442.219" y="338.887" fill="none" stroke="#000000" stroke-width="2" width="36" height="36"/>
	<rect x="620.344" y="337.636" fill="none" stroke="#000000" stroke-width="2" width="36" height="36.001"/>
	<rect x="501.406" y="338.887" fill="none" stroke="#000000" stroke-width="2" width="36" height="36"/>
	<rect x="560.955" y="338.604" fill="none" stroke="#000000" stroke-width="2" width="36" height="36.002"/>
	<rect x="679.529" y="338.604" fill="none" stroke="#000000" stroke-width="2" width="36" height="36"/>
	<rect x="739.094" y="337.636" fill="none" stroke="#000000" stroke-width="2" width="36" height="36.001"/>
	<g>
		<ellipse fill="none" stroke="#000000" stroke-width="2" cx="399.78" cy="233.994" rx="20" ry="20"/>
		<path fill="none" stroke="#000000" stroke-width="2" d="M413.279,220.494c0,7.456-6.045,13.5-13.5,13.5
			c-7.456,0-13.5-6.044-13.5-13.5"/>
		<path fill="none" stroke="#000000" stroke-width="2" d="M386.28,247.494c0-7.456,6.044-13.5,13.5-13.5
			c7.455,0,13.5,6.044,13.5,13.5"/>
		<path fill="none" stroke="#000000" stroke-width="2" d="M413.279,247.494c-7.455,0-13.5-6.044-13.5-13.5s6.044-13.5,13.5-13.5"/>
		<path fill="none" stroke="#000000" stroke-width="2" d="M386.28,220.494c7.455,0,13.5,6.044,13.5,13.5s-6.045,13.5-13.5,13.5"/>
	</g>
	<g>
		<ellipse fill="none" stroke="#000000" stroke-width="2" cx="399.78" cy="299.994" rx="20" ry="20"/>
		<path fill="none" stroke="#000000" stroke-width="2" d="M413.279,286.494c0,7.456-6.045,13.5-13.5,13.5
			c-7.456,0-13.5-6.044-13.5-13.5"/>
		<path fill="none" stroke="#000000" stroke-width="2" d="M386.28,313.494c0-7.456,6.044-13.5,13.5-13.5
			c7.455,0,13.5,6.044,13.5,13.5"/>
		<path fill="none" stroke="#000000" stroke-width="2" d="M413.279,313.494c-7.455,0-13.5-6.045-13.5-13.5
			c0-7.456,6.044-13.5,13.5-13.5"/>
		<path fill="none" stroke="#000000" stroke-width="2" d="M386.28,286.494c7.455,0,13.5,6.044,13.5,13.5
			c0,7.455-6.045,13.5-13.5,13.5"/>
	</g>
	<g>
		<ellipse fill="none" stroke="#000000" stroke-width="2" cx="399.78" cy="366.006" rx="20" ry="20"/>
		<path fill="none" stroke="#000000" stroke-width="2" d="M413.279,352.506c0,7.455-6.045,13.5-13.5,13.5
			c-7.456,0-13.5-6.045-13.5-13.5"/>
		<path fill="none" stroke="#000000" stroke-width="2" d="M386.28,379.506c0-7.456,6.044-13.5,13.5-13.5
			c7.455,0,13.5,6.044,13.5,13.5"/>
		<path fill="none" stroke="#000000" stroke-width="2" d="M413.279,379.506c-7.455,0-13.5-6.045-13.5-13.5
			c0-7.456,6.044-13.5,13.5-13.5"/>
		<path fill="none" stroke="#000000" stroke-width="2" d="M386.28,352.506c7.455,0,13.5,6.044,13.5,13.5
			c0,7.455-6.045,13.5-13.5,13.5"/>
	</g>
</g>
</svg>
