<?xml version="1.0" encoding="utf-8"?>
<!-- Generator: Adobe Illustrator 14.0.0, SVG Export Plug-In . SVG Version: 6.00 Build 43363)  -->
<!DOCTYPE svg PUBLIC "-//W3C//DTD SVG 1.1//EN" "http://www.w3.org/Graphics/SVG/1.1/DTD/svg11.dtd">
<svg version="1.1" id="Livello_1" xmlns="http://www.w3.org/2000/svg" xmlns:xlink="http://www.w3.org/1999/xlink" x="0px" y="0px"
	 width="800px" height="600px" viewBox="0 0 800 600" enable-background="new 0 0 800 600" xml:space="preserve">
<rect x="8.126" y="223.501" fill="none" stroke="#000000" stroke-width="2" width="36" height="36"/>
<rect x="186.252" y="222.25" fill="none" stroke="#000000" stroke-width="2" width="36" height="36"/>
<rect x="67.314" y="223.5" fill="none" stroke="#000000" stroke-width="2" width="36" height="36"/>
<rect x="126.863" y="223.218" fill="none" stroke="#000000" stroke-width="2" width="36" height="36"/>
<rect x="245.438" y="223.217" fill="none" stroke="#000000" stroke-width="2" width="36" height="36"/>
<rect x="305.002" y="222.25" fill="none" stroke="#000000" stroke-width="2" width="36" height="36"/>
<rect x="8.126" y="279.479" fill="none" stroke="#000000" stroke-width="2" width="36" height="36"/>
<rect x="67.314" y="279.479" fill="none" stroke="#000000" stroke-width="2" width="36" height="36"/>
<rect x="126.863" y="279.622" fill="none" stroke="#000000" stroke-width="2" width="36" height="36"/>
<rect x="186.252" y="279.479" fill="none" stroke="#000000" stroke-width="2" width="36" height="36"/>
<rect x="245.438" y="280.479" fill="none" stroke="#000000" stroke-width="2" width="36" height="36"/>
<rect x="304.988" y="279.479" fill="none" stroke="#000000" stroke-width="2" width="36" height="36"/>
<rect x="8.314" y="336.535" fill="none" stroke="#000000" stroke-width="2" width="36" height="36"/>
<rect x="186.44" y="335.284" fill="none" stroke="#000000" stroke-width="2" width="36" height="36.001"/>
<rect x="67.502" y="336.535" fill="none" stroke="#000000" stroke-width="2" width="36" height="36"/>
<rect x="127.051" y="336.252" fill="none" stroke="#000000" stroke-width="2" width="36" height="36.002"/>
<rect x="245.625" y="336.252" fill="none" stroke="#000000" stroke-width="2" width="36" height="36"/>
<rect x="305.19" y="335.284" fill="none" stroke="#000000" stroke-width="2" width="36" height="36.001"/>
<rect x="460.252" y="224.358" fill="none" stroke="#000000" stroke-width="2" width="36" height="36"/>
<rect x="638.377" y="223.107" fill="none" stroke="#000000" stroke-width="2" width="36" height="36"/>
<rect x="519.439" y="224.358" fill="none" stroke="#000000" stroke-width="2" width="36" height="36"/>
<rect x="578.988" y="224.075" fill="none" stroke="#000000" stroke-width="2" width="36" height="36"/>
<rect x="697.562" y="224.075" fill="none" stroke="#000000" stroke-width="2" width="36" height="36"/>
<rect x="757.127" y="223.107" fill="none" stroke="#000000" stroke-width="2" width="36" height="36"/>
<rect x="460.252" y="280.336" fill="none" stroke="#000000" stroke-width="2" width="36" height="36"/>
<rect x="519.439" y="280.336" fill="none" stroke="#000000" stroke-width="2" width="36" height="36"/>
<rect x="578.988" y="280.479" fill="none" stroke="#000000" stroke-width="2" width="36" height="36"/>
<rect x="638.377" y="280.336" fill="none" stroke="#000000" stroke-width="2" width="36" height="36"/>
<rect x="697.562" y="281.336" fill="none" stroke="#000000" stroke-width="2" width="36" height="36"/>
<rect x="757.113" y="280.336" fill="none" stroke="#000000" stroke-width="2" width="36" height="36"/>
<rect x="460.439" y="337.393" fill="none" stroke="#000000" stroke-width="2" width="36" height="36"/>
<rect x="638.564" y="336.142" fill="none" stroke="#000000" stroke-width="2" width="36" height="36.001"/>
<rect x="519.627" y="337.393" fill="none" stroke="#000000" stroke-width="2" width="36" height="36"/>
<rect x="579.176" y="337.109" fill="none" stroke="#000000" stroke-width="2" width="36" height="36.002"/>
<rect x="697.75" y="337.109" fill="none" stroke="#000000" stroke-width="2" width="36" height="36"/>
<rect x="757.314" y="336.142" fill="none" stroke="#000000" stroke-width="2" width="36" height="36.001"/>
<path fill="none" stroke="#000000" d="M476,225.532"/>
<path fill="none" stroke="#000000" d="M333,225.532"/>
<g>
	<path fill="none" stroke="#000000" d="M403.496,279.136"/>
	<path fill="none" stroke="#000000" d="M399.496,171.929"/>
	<path fill="none" stroke="#000000" stroke-width="2" d="M426.496,197.646c0,14.912-12.09,27-27,27c-14.912,0-27-12.087-27-27"/>
	<path fill="none" stroke="#000000" stroke-width="2" d="M372.496,253.418c0-14.912,12.088-27,27-27c14.91,0,27,12.087,27,27"/>
	<path fill="none" stroke="#000000" stroke-width="2" d="M426.496,252.334c-14.912,0-27-12-27-26.802
		c0-14.802,12.088-26.802,27-26.802"/>
	<path fill="none" stroke="#000000" stroke-width="2" d="M372.496,198.73c14.91,0,27,12,27,26.802c0,14.803-12.09,26.802-27,26.802"
		/>
	<rect x="364" y="189.515" fill="none" stroke="#000000" stroke-width="2" width="72" height="71.471"/>
	<g>
		<path fill="none" stroke="#000000" stroke-width="2" d="M426.496,270.133c0,14.912-12.09,27-27,27c-14.912,0-27-12.087-27-27"/>
		<path fill="none" stroke="#000000" stroke-width="2" d="M372.496,325.905c0-14.913,12.088-27,27-27c14.91,0,27,12.087,27,27"/>
		<path fill="none" stroke="#000000" stroke-width="2" d="M426.496,324.82c-14.912,0-27-11.998-27-26.801
			c0-14.803,12.088-26.802,27-26.802"/>
		<path fill="none" stroke="#000000" stroke-width="2" d="M372.496,271.217c14.91,0,27,12,27,26.802
			c0,14.803-12.09,26.801-27,26.801"/>
		<rect x="364" y="262.001" fill="none" stroke="#000000" stroke-width="2" width="72" height="71.471"/>
	</g>
	<path fill="none" stroke="#000000" stroke-width="2" d="M426.496,340.59c0,14.911-12.09,27-27,27c-14.912,0-27-12.089-27-27"/>
	<path fill="none" stroke="#000000" stroke-width="2" d="M372.496,396.362c0-14.911,12.088-27,27-27c14.91,0,27,12.089,27,27"/>
	<path fill="none" stroke="#000000" stroke-width="2" d="M426.496,395.277c-14.912,0-27-11.999-27-26.802s12.088-26.802,27-26.802"
		/>
	<path fill="none" stroke="#000000" stroke-width="2" d="M372.496,341.674c14.91,0,27,11.999,27,26.802s-12.09,26.802-27,26.802"/>
	<rect x="364" y="332.458" fill="none" stroke="#000000" stroke-width="2" width="72" height="71.471"/>
</g>
</svg>
