<?xml version="1.0" encoding="utf-8"?>
<!-- Generator: Adobe Illustrator 14.0.0, SVG Export Plug-In . SVG Version: 6.00 Build 43363)  -->
<!DOCTYPE svg PUBLIC "-//W3C//DTD SVG 1.1//EN" "http://www.w3.org/Graphics/SVG/1.1/DTD/svg11.dtd">
<svg version="1.1" id="Livello_1" xmlns="http://www.w3.org/2000/svg" xmlns:xlink="http://www.w3.org/1999/xlink" x="0px" y="0px"
	 width="800px" height="600px" viewBox="0 0 800 600" enable-background="new 0 0 800 600" xml:space="preserve">
<path fill="none" stroke="#000000" d="M428.779,234.994"/>
<g>
	<ellipse fill="none" stroke="#000000" stroke-width="2" cx="399.78" cy="233.994" rx="20" ry="20"/>
	<path fill="none" stroke="#000000" stroke-width="2" d="M413.279,220.494c0,7.456-6.045,13.5-13.5,13.5s-13.5-6.044-13.5-13.5"/>
	<path fill="none" stroke="#000000" stroke-width="2" d="M386.28,247.494c0-7.456,6.044-13.5,13.5-13.5
		c7.455,0,13.5,6.044,13.5,13.5"/>
	<path fill="none" stroke="#000000" stroke-width="2" d="M413.279,247.494c-7.455,0-13.5-6.044-13.5-13.5s6.044-13.5,13.5-13.5"/>
	<path fill="none" stroke="#000000" stroke-width="2" d="M386.28,220.494c7.455,0,13.5,6.044,13.5,13.5s-6.045,13.5-13.5,13.5"/>
</g>
<g>
	<ellipse fill="none" stroke="#000000" stroke-width="2" cx="399.78" cy="299.994" rx="20" ry="20"/>
	<path fill="none" stroke="#000000" stroke-width="2" d="M413.279,286.494c0,7.456-6.045,13.5-13.5,13.5s-13.5-6.044-13.5-13.5"/>
	<path fill="none" stroke="#000000" stroke-width="2" d="M386.28,313.494c0-7.456,6.044-13.5,13.5-13.5
		c7.455,0,13.5,6.044,13.5,13.5"/>
	<path fill="none" stroke="#000000" stroke-width="2" d="M413.279,313.494c-7.455,0-13.5-6.045-13.5-13.5
		c0-7.456,6.044-13.5,13.5-13.5"/>
	<path fill="none" stroke="#000000" stroke-width="2" d="M386.28,286.494c7.455,0,13.5,6.044,13.5,13.5
		c0,7.455-6.045,13.5-13.5,13.5"/>
</g>
<g>
	<ellipse fill="none" stroke="#000000" stroke-width="2" cx="399.78" cy="366.006" rx="20" ry="20"/>
	<path fill="none" stroke="#000000" stroke-width="2" d="M413.279,352.506c0,7.455-6.045,13.5-13.5,13.5s-13.5-6.045-13.5-13.5"/>
	<path fill="none" stroke="#000000" stroke-width="2" d="M386.28,379.506c0-7.456,6.044-13.5,13.5-13.5
		c7.455,0,13.5,6.044,13.5,13.5"/>
	<path fill="none" stroke="#000000" stroke-width="2" d="M413.279,379.506c-7.455,0-13.5-6.045-13.5-13.5
		c0-7.456,6.044-13.5,13.5-13.5"/>
	<path fill="none" stroke="#000000" stroke-width="2" d="M386.28,352.506c7.455,0,13.5,6.044,13.5,13.5
		c0,7.455-6.045,13.5-13.5,13.5"/>
</g>
<text transform="matrix(1 0 0 1 29.5 260.7441)" font-family="'LucidaSans'" font-size="36">C</text>
<text transform="matrix(1 0 0 1 97.8711 259.9941)" font-family="'LucidaSans'" font-size="36">I</text>
<text transform="matrix(1 0 0 1 207.5 259.9941)" font-family="'LucidaSans'" font-size="36">C</text>
<text transform="matrix(1 0 0 1 30.5 317.4941)" font-family="'LucidaSans'" font-size="36">C</text>
<text transform="matrix(1 0 0 1 150.0566 259.9941)" font-family="'LucidaSans'" font-size="36">R</text>
<text transform="matrix(1 0 0 1 327.0566 316.4941)" font-family="'LucidaSans'" font-size="36">R</text>
<text transform="matrix(1 0 0 1 267.0566 260.9941)" font-family="'LucidaSans'" font-size="36">U</text>
<text transform="matrix(1 0 0 1 328.0566 259.9941)" font-family="'LucidaSans'" font-size="36">S</text>
<text transform="matrix(1 0 0 1 747.0566 258.9941)" font-family="'LucidaSans'" font-size="36">S</text>
<text transform="matrix(1 0 0 1 747.0566 316.9727)" font-family="'LucidaSans'" font-size="36">S</text>
<text transform="matrix(1 0 0 1 90.0566 317.4941)" font-family="'LucidaSans'" font-size="36">L</text>
<text transform="matrix(1 0 0 1 509.0566 261.9941)" font-family="'LucidaSans'" font-size="36">L</text>
<text transform="matrix(1 0 0 1 36.8711 374.0059)" font-family="'LucidaSans'" font-size="36">I</text>
<text transform="matrix(1 0 0 1 454.8711 317.4941)" font-family="'LucidaSans'" font-size="36">I</text>
<text transform="matrix(1 0 0 1 148.0566 317.4941)" font-family="'LucidaSans'" font-size="36">A</text>
<text transform="matrix(1 0 0 1 90.0566 373.0059)" font-family="'LucidaSans'" font-size="36">A</text>
<text transform="matrix(1 0 0 1 268.0566 373.0059)" font-family="'LucidaSans'" font-size="36">A</text>
<text transform="matrix(1 0 0 1 205.5 317.4941)" font-family="'LucidaSans'" font-size="36">M</text>
<text transform="matrix(1 0 0 1 266.0566 317.4941)" font-family="'LucidaSans'" font-size="36">O</text>
<text transform="matrix(1 0 0 1 148.0566 373.0059)" font-family="'LucidaSans'" font-size="36">N</text>
<text transform="matrix(1 0 0 1 624.3438 259.9941)" font-family="'LucidaSans'" font-size="36">N</text>
<text transform="matrix(1 0 0 1 505.0566 317.4941)" font-family="'LucidaSans'" font-size="36">N</text>
<text transform="matrix(1 0 0 1 685.2793 318.4941)" font-family="'LucidaSans'" font-size="36">N</text>
<text transform="matrix(1 0 0 1 565.2793 374.0059)" font-family="'LucidaSans'" font-size="36">N</text>
<text transform="matrix(1 0 0 1 328.0571 372.0059)" font-family="'LucidaSans'" font-size="36">E</text>
<text transform="matrix(1 0 0 1 567.2793 260.9941)" font-family="'LucidaSans'" font-size="36">E</text>
<text transform="matrix(1 0 0 1 627.875 317.4941)" font-family="'LucidaSans'" font-size="36">E</text>
<text transform="matrix(1 0 0 1 509.0566 373.7559)" font-family="'LucidaSans'" font-size="36">E</text>
<text transform="matrix(1 0 0 1 627.875 373.0059)" font-family="'LucidaSans'" font-size="36">E</text>
<text transform="matrix(1 0 0 1 746.875 373.0059)" font-family="'LucidaSans'" font-size="36">E</text>
<text transform="matrix(1 0 0 1 209.7788 372.0059)" font-family="'LucidaSans'" font-size="36">V</text>
<text transform="matrix(1 0 0 1 686.2793 260.9941)" font-family="'LucidaSans'" font-size="36">V</text>
<text transform="matrix(1 0 0 1 449.7285 260.9941)" font-family="'LucidaSans'" font-size="36">P</text>
<text transform="matrix(1 0 0 1 688.0566 374.0059)" font-family="'LucidaSans'" font-size="36">R</text>
<text transform="matrix(1 0 0 1 565.2793 316.4941)" font-family="'LucidaSans'" font-size="36">G</text>
<text transform="matrix(1 0 0 1 447.8711 373.7559)" font-family="'LucidaSans'" font-size="36">T</text>
</svg>
