<?xml version="1.0" encoding="utf-8"?>
<!-- Generator: Adobe Illustrator 14.0.0, SVG Export Plug-In . SVG Version: 6.00 Build 43363)  -->
<!DOCTYPE svg PUBLIC "-//W3C//DTD SVG 1.1//EN" "http://www.w3.org/Graphics/SVG/1.1/DTD/svg11.dtd">
<svg version="1.1" id="Livello_1" xmlns="http://www.w3.org/2000/svg" xmlns:xlink="http://www.w3.org/1999/xlink" x="0px" y="0px"
	 width="800px" height="600px" viewBox="0 0 800 600" enable-background="new 0 0 800 600" xml:space="preserve">
<g>
	<g>
		<ellipse fill="#545454" stroke="#000000" stroke-width="2" cx="67.069" cy="243.908" rx="17.813" ry="16.963"/>
		<ellipse fill="#545454" stroke="#000000" stroke-width="2" cx="126.445" cy="243.908" rx="17.812" ry="16.963"/>
		<ellipse fill="#545454" stroke="#000000" stroke-width="2" cx="185.806" cy="243.908" rx="17.812" ry="16.963"/>
		<ellipse fill="#545454" stroke="#000000" stroke-width="2" cx="245.195" cy="243.625" rx="17.812" ry="16.963"/>
		<ellipse fill="#545454" stroke="#000000" stroke-width="2" cx="304.569" cy="243.908" rx="17.813" ry="16.963"/>
		<ellipse fill="#545454" stroke="#000000" stroke-width="2" cx="363.945" cy="243.908" rx="17.812" ry="16.963"/>
		<ellipse fill="#545454" stroke="#000000" stroke-width="2" cx="67.069" cy="299.887" rx="17.813" ry="16.963"/>
		<ellipse fill="#545454" stroke="#000000" stroke-width="2" cx="126.445" cy="299.887" rx="17.812" ry="16.963"/>
		<ellipse fill="#545454" stroke="#000000" stroke-width="2" cx="185.806" cy="299.887" rx="17.812" ry="16.963"/>
		<ellipse fill="#545454" stroke="#000000" stroke-width="2" cx="245.195" cy="300.029" rx="17.812" ry="16.964"/>
		<ellipse fill="#545454" stroke="#000000" stroke-width="2" cx="304.569" cy="300.029" rx="17.813" ry="16.964"/>
		<ellipse fill="#545454" stroke="#000000" stroke-width="2" cx="363.931" cy="300.029" rx="17.812" ry="16.964"/>
		<ellipse fill="#545454" stroke="#000000" stroke-width="2" cx="67.069" cy="356.317" rx="17.813" ry="16.964"/>
		<ellipse fill="#545454" stroke="#000000" stroke-width="2" cx="126.445" cy="356.317" rx="17.812" ry="16.964"/>
		<ellipse fill="#545454" stroke="#000000" stroke-width="2" cx="185.806" cy="356.317" rx="17.812" ry="16.964"/>
		<ellipse fill="#545454" stroke="#000000" stroke-width="2" cx="245.195" cy="356.317" rx="17.812" ry="16.964"/>
		<ellipse fill="#545454" stroke="#000000" stroke-width="2" cx="304.569" cy="356.317" rx="17.813" ry="16.964"/>
		<ellipse fill="#545454" stroke="#000000" stroke-width="2" cx="363.931" cy="356.317" rx="17.812" ry="16.964"/>
	</g>
	<g>
		<ellipse fill="#545454" stroke="#000000" stroke-width="2" cx="436.055" cy="243.965" rx="17.812" ry="16.963"/>
		<ellipse fill="#545454" stroke="#000000" stroke-width="2" cx="495.43" cy="243.965" rx="17.812" ry="16.963"/>
		<ellipse fill="#545454" stroke="#000000" stroke-width="2" cx="554.791" cy="243.965" rx="17.812" ry="16.963"/>
		<ellipse fill="#545454" stroke="#000000" stroke-width="2" cx="614.18" cy="243.682" rx="17.812" ry="16.963"/>
		<ellipse fill="#545454" stroke="#000000" stroke-width="2" cx="673.555" cy="243.965" rx="17.812" ry="16.963"/>
		<ellipse fill="#545454" stroke="#000000" stroke-width="2" cx="732.93" cy="243.965" rx="17.812" ry="16.963"/>
		<ellipse fill="#545454" stroke="#000000" stroke-width="2" cx="436.055" cy="299.944" rx="17.812" ry="16.963"/>
		<ellipse fill="#545454" stroke="#000000" stroke-width="2" cx="495.43" cy="299.944" rx="17.812" ry="16.963"/>
		<ellipse fill="#545454" stroke="#000000" stroke-width="2" cx="554.791" cy="299.944" rx="17.812" ry="16.963"/>
		<ellipse fill="#545454" stroke="#000000" stroke-width="2" cx="614.18" cy="300.085" rx="17.812" ry="16.963"/>
		<ellipse fill="#545454" stroke="#000000" stroke-width="2" cx="673.555" cy="300.085" rx="17.812" ry="16.963"/>
		<ellipse fill="#545454" stroke="#000000" stroke-width="2" cx="732.916" cy="300.085" rx="17.812" ry="16.963"/>
		<ellipse fill="#545454" stroke="#000000" stroke-width="2" cx="436.055" cy="356.375" rx="17.812" ry="16.963"/>
		<ellipse fill="#545454" stroke="#000000" stroke-width="2" cx="495.43" cy="356.375" rx="17.812" ry="16.963"/>
		<ellipse fill="#545454" stroke="#000000" stroke-width="2" cx="554.791" cy="356.375" rx="17.812" ry="16.963"/>
		<ellipse fill="#545454" stroke="#000000" stroke-width="2" cx="614.18" cy="356.375" rx="17.812" ry="16.963"/>
		<ellipse fill="#545454" stroke="#000000" stroke-width="2" cx="673.555" cy="356.375" rx="17.812" ry="16.963"/>
		<ellipse fill="#545454" stroke="#000000" stroke-width="2" cx="732.916" cy="356.375" rx="17.812" ry="16.963"/>
	</g>
	<line fill="none" stroke="#000000" stroke-width="2" x1="400.365" y1="227.002" x2="400.365" y2="373.338"/>
</g>
</svg>
