<?xml version="1.0" encoding="utf-8"?>
<!-- Generator: Adobe Illustrator 14.0.0, SVG Export Plug-In . SVG Version: 6.00 Build 43363)  -->
<!DOCTYPE svg PUBLIC "-//W3C//DTD SVG 1.1//EN" "http://www.w3.org/Graphics/SVG/1.1/DTD/svg11.dtd">
<svg version="1.1" id="Livello_1" xmlns="http://www.w3.org/2000/svg" xmlns:xlink="http://www.w3.org/1999/xlink" x="0px" y="0px"
	 width="800px" height="600px" viewBox="0 0 800 600" enable-background="new 0 0 800 600" xml:space="preserve">
<g>
	<ellipse fill="#545454" stroke="#000000" stroke-width="2" cx="43.125" cy="243.937" rx="17.812" ry="16.963"/>
	<ellipse fill="#545454" stroke="#000000" stroke-width="2" cx="102.501" cy="243.937" rx="17.812" ry="16.963"/>
	<ellipse fill="#545454" stroke="#000000" stroke-width="2" cx="161.862" cy="243.937" rx="17.812" ry="16.963"/>
	<ellipse fill="#545454" stroke="#000000" stroke-width="2" cx="221.251" cy="243.654" rx="17.812" ry="16.963"/>
	<ellipse fill="#545454" stroke="#000000" stroke-width="2" cx="280.625" cy="243.937" rx="17.812" ry="16.963"/>
	<ellipse fill="#545454" stroke="#000000" stroke-width="2" cx="340.001" cy="243.937" rx="17.812" ry="16.963"/>
	<ellipse fill="#545454" stroke="#000000" stroke-width="2" cx="43.125" cy="299.915" rx="17.812" ry="16.963"/>
	<ellipse fill="#545454" stroke="#000000" stroke-width="2" cx="102.501" cy="299.915" rx="17.812" ry="16.963"/>
	<ellipse fill="#545454" stroke="#000000" stroke-width="2" cx="161.862" cy="299.915" rx="17.812" ry="16.963"/>
	<ellipse fill="#545454" stroke="#000000" stroke-width="2" cx="221.251" cy="300.058" rx="17.812" ry="16.964"/>
	<ellipse fill="#545454" stroke="#000000" stroke-width="2" cx="280.625" cy="300.058" rx="17.812" ry="16.964"/>
	<ellipse fill="#545454" stroke="#000000" stroke-width="2" cx="339.987" cy="300.058" rx="17.812" ry="16.964"/>
	<ellipse fill="#545454" stroke="#000000" stroke-width="2" cx="43.125" cy="356.346" rx="17.812" ry="16.964"/>
	<ellipse fill="#545454" stroke="#000000" stroke-width="2" cx="102.501" cy="356.346" rx="17.812" ry="16.964"/>
	<ellipse fill="#545454" stroke="#000000" stroke-width="2" cx="161.862" cy="356.346" rx="17.812" ry="16.964"/>
	<ellipse fill="#545454" stroke="#000000" stroke-width="2" cx="221.251" cy="356.346" rx="17.812" ry="16.964"/>
	<ellipse fill="#545454" stroke="#000000" stroke-width="2" cx="280.625" cy="356.346" rx="17.812" ry="16.964"/>
	<ellipse fill="#545454" stroke="#000000" stroke-width="2" cx="339.987" cy="356.346" rx="17.812" ry="16.964"/>
</g>
<g>
	<ellipse fill="#545454" stroke="#000000" stroke-width="2" cx="457.999" cy="243.937" rx="17.812" ry="16.963"/>
	<ellipse fill="#545454" stroke="#000000" stroke-width="2" cx="517.374" cy="243.937" rx="17.812" ry="16.963"/>
	<ellipse fill="#545454" stroke="#000000" stroke-width="2" cx="576.735" cy="243.937" rx="17.812" ry="16.963"/>
	<ellipse fill="#545454" stroke="#000000" stroke-width="2" cx="636.124" cy="243.654" rx="17.812" ry="16.963"/>
	<ellipse fill="#545454" stroke="#000000" stroke-width="2" cx="695.499" cy="243.937" rx="17.812" ry="16.963"/>
	<ellipse fill="#545454" stroke="#000000" stroke-width="2" cx="754.874" cy="243.937" rx="17.812" ry="16.963"/>
	<ellipse fill="#545454" stroke="#000000" stroke-width="2" cx="457.999" cy="299.916" rx="17.812" ry="16.963"/>
	<ellipse fill="#545454" stroke="#000000" stroke-width="2" cx="517.374" cy="299.916" rx="17.812" ry="16.963"/>
	<ellipse fill="#545454" stroke="#000000" stroke-width="2" cx="576.735" cy="299.916" rx="17.812" ry="16.963"/>
	<ellipse fill="#545454" stroke="#000000" stroke-width="2" cx="636.124" cy="300.057" rx="17.812" ry="16.963"/>
	<ellipse fill="#545454" stroke="#000000" stroke-width="2" cx="695.499" cy="300.057" rx="17.812" ry="16.963"/>
	<ellipse fill="#545454" stroke="#000000" stroke-width="2" cx="754.86" cy="300.057" rx="17.812" ry="16.963"/>
	<ellipse fill="#545454" stroke="#000000" stroke-width="2" cx="457.999" cy="356.347" rx="17.812" ry="16.963"/>
	<ellipse fill="#545454" stroke="#000000" stroke-width="2" cx="517.374" cy="356.347" rx="17.812" ry="16.963"/>
	<ellipse fill="#545454" stroke="#000000" stroke-width="2" cx="576.735" cy="356.347" rx="17.812" ry="16.963"/>
	<ellipse fill="#545454" stroke="#000000" stroke-width="2" cx="636.124" cy="356.347" rx="17.812" ry="16.963"/>
	<ellipse fill="#545454" stroke="#000000" stroke-width="2" cx="695.499" cy="356.347" rx="17.812" ry="16.963"/>
	<ellipse fill="#545454" stroke="#000000" stroke-width="2" cx="754.86" cy="356.347" rx="17.812" ry="16.963"/>
</g>
<rect x="380" y="207.519" fill="#545454" stroke="#000000" stroke-width="2" width="40" height="51.963"/>
<rect x="380" y="274.019" fill="#545454" stroke="#000000" stroke-width="2" width="40" height="51.963"/>
<rect x="380" y="340.355" fill="#545454" stroke="#000000" stroke-width="2" width="40" height="51.963"/>
</svg>
