<?xml version="1.0" encoding="utf-8"?>
<!-- Generator: Adobe Illustrator 14.0.0, SVG Export Plug-In . SVG Version: 6.00 Build 43363)  -->
<!DOCTYPE svg PUBLIC "-//W3C//DTD SVG 1.1//EN" "http://www.w3.org/Graphics/SVG/1.1/DTD/svg11.dtd">
<svg version="1.1" id="Livello_1" xmlns="http://www.w3.org/2000/svg" xmlns:xlink="http://www.w3.org/1999/xlink" x="0px" y="0px"
	 width="800px" height="600px" viewBox="0 0 800 600" enable-background="new 0 0 800 600" xml:space="preserve">
<path fill="none" stroke="#000000" d="M402,206.5"/>
<path fill="none" stroke="#000000" stroke-width="2" d="M415.5,220"/>
<path fill="none" stroke="#000000" d="M437.75,236.056"/>
<path fill="none" stroke="#000000" stroke-width="2" d="M388.5,220"/>
<g>
	<rect x="41.182" y="259.419" fill="none" stroke="#000000" stroke-width="2" width="34.053" height="31.854"/>
	<rect x="209.676" y="258.312" fill="none" stroke="#000000" stroke-width="2" width="34.053" height="31.854"/>
	<rect x="97.169" y="259.418" fill="none" stroke="#000000" stroke-width="2" width="34.054" height="31.854"/>
	<rect x="153.499" y="259.168" fill="none" stroke="#000000" stroke-width="2" width="34.053" height="31.854"/>
	<rect x="265.662" y="259.167" fill="none" stroke="#000000" stroke-width="2" width="34.053" height="31.854"/>
	<rect x="322.005" y="258.312" fill="none" stroke="#000000" stroke-width="2" width="34.053" height="31.854"/>
	<rect x="41.182" y="308.949" fill="none" stroke="#000000" stroke-width="2" width="34.053" height="31.854"/>
	<rect x="97.169" y="308.949" fill="none" stroke="#000000" stroke-width="2" width="34.054" height="31.854"/>
	<rect x="153.499" y="309.076" fill="none" stroke="#000000" stroke-width="2" width="34.053" height="31.854"/>
	<rect x="209.676" y="308.949" fill="none" stroke="#000000" stroke-width="2" width="34.053" height="31.854"/>
	<rect x="265.662" y="309.834" fill="none" stroke="#000000" stroke-width="2" width="34.053" height="31.854"/>
	<rect x="321.991" y="308.949" fill="none" stroke="#000000" stroke-width="2" width="34.054" height="31.854"/>
</g>
<g>
	<g>
		<path fill="none" stroke="#000000" d="M401.375,292.812"/>
		<path fill="none" stroke="#000000" stroke-width="2" d="M372.5,290.562c0-14.636,12.312-26.5,27.5-26.5
			c15.187,0,27.5,11.864,27.5,26.5"/>
		<path fill="none" stroke="#000000" stroke-width="2" d="M427.875,289.562c-15.188,0-27.5-11.864-27.5-26.5"/>
		<path fill="none" stroke="#000000" stroke-width="2" d="M399.625,263.062c0,14.636-12.314,26.5-27.5,26.5"/>
		<path fill="none" stroke="#000000" d="M374.375,265.812"/>
	</g>
	<g>
		<path fill="none" stroke="#000000" d="M398.625,307.188"/>
		<path fill="none" stroke="#000000" stroke-width="2" d="M427.5,309.438c0,14.637-12.312,26.5-27.5,26.5
			c-15.187,0-27.5-11.863-27.5-26.5"/>
		<path fill="none" stroke="#000000" stroke-width="2" d="M372.125,310.438c15.188,0,27.5,11.865,27.5,26.5"/>
		<path fill="none" stroke="#000000" stroke-width="2" d="M400.375,336.938c0-14.635,12.314-26.5,27.5-26.5"/>
		<path fill="none" stroke="#000000" d="M425.625,334.188"/>
	</g>
</g>
<g>
	<rect x="443.646" y="259.419" fill="none" stroke="#000000" stroke-width="2" width="34.053" height="31.854"/>
	<rect x="612.141" y="258.312" fill="none" stroke="#000000" stroke-width="2" width="34.054" height="31.854"/>
	<rect x="499.634" y="259.418" fill="none" stroke="#000000" stroke-width="2" width="34.054" height="31.854"/>
	<rect x="555.963" y="259.168" fill="none" stroke="#000000" stroke-width="2" width="34.054" height="31.854"/>
	<rect x="668.126" y="259.167" fill="none" stroke="#000000" stroke-width="2" width="34.053" height="31.854"/>
	<rect x="724.47" y="258.312" fill="none" stroke="#000000" stroke-width="2" width="34.053" height="31.854"/>
	<rect x="443.646" y="308.949" fill="none" stroke="#000000" stroke-width="2" width="34.053" height="31.854"/>
	<rect x="499.634" y="308.949" fill="none" stroke="#000000" stroke-width="2" width="34.054" height="31.854"/>
	<rect x="555.963" y="309.076" fill="none" stroke="#000000" stroke-width="2" width="34.054" height="31.854"/>
	<rect x="612.141" y="308.949" fill="none" stroke="#000000" stroke-width="2" width="34.054" height="31.854"/>
	<rect x="668.126" y="309.834" fill="none" stroke="#000000" stroke-width="2" width="34.053" height="31.854"/>
	<rect x="724.456" y="308.949" fill="none" stroke="#000000" stroke-width="2" width="34.053" height="31.854"/>
</g>
</svg>
